<svg xmlns="http://www.w3.org/2000/svg" viewBox="0 0 183 44" width="183" height="44" role="img" aria-labelledby="title desc"><title id="title">G&amp;G Transport Inc</title><desc id="desc">G&amp;G Transport Inc company logo converted from PNG to vector paths.</desc><path fill="rgb(255 255 255)" fill-opacity="0.9490" d="M0 0h45v1H0zM179 0h2v1H179zM181 2h1v1H181zM181 3h1v1H181zM181 4h1v1H181zM181 5h1v1H181zM181 6h1v1H181zM181 7h1v1H181zM181 8h1v1H181zM181 9h1v1H181zM181 10h1v1H181zM181 11h1v1H181zM181 12h1v1H181zM181 13h1v1H181zM181 14h1v1H181zM181 15h1v1H181zM181 16h1v1H181zM181 17h1v1H181zM181 18h1v1H181zM181 19h1v1H181zM181 20h1v1H181zM181 21h1v1H181zM181 22h1v1H181zM181 23h1v1H181zM181 24h1v1H181zM181 25h1v1H181zM181 26h1v1H181zM181 27h1v1H181zM181 28h1v1H181zM181 29h1v1H181zM181 30h1v1H181zM181 31h1v1H181zM181 35h1v1H181zM181 36h1v1H181zM181 37h1v1H181zM181 38h1v1H181zM181 39h1v1H181zM181 40h1v1H181zM181 41h1v1H181zM0 43h21v1H0zM29 43h22v1H29zM56 43h55v1H56zM115 43h66v1H115z"/><path fill="rgb(184 205 225)" fill-opacity="0.9490" d="M45 0h1v1H45z"/><path fill="rgb(8 89 173)" fill-opacity="0.9490" d="M46 0h1v1H46z"/><path fill="rgb(30 109 187)" fill-opacity="0.9490" d="M47 0h1v1H47zM25 43h1v1H25z"/><path fill="rgb(32 111 187)" fill-opacity="0.9490" d="M48 0h4v1H48zM56 0h3v1H56z"/><path fill="rgb(32 111 185)" fill-opacity="0.9490" d="M52 0h4v1H52z"/><path fill="rgb(33 111 187)" fill-opacity="0.9490" d="M59 0h1v1H59zM63 0h3v1H63z"/><path fill="rgb(33 112 187)" fill-opacity="0.9490" d="M60 0h3v1H60z"/><path fill="rgb(34 111 187)" fill-opacity="0.9490" d="M66 0h1v1H66z"/><path fill="rgb(34 112 187)" fill-opacity="0.9490" d="M67 0h3v1H67z"/><path fill="rgb(35 111 187)" fill-opacity="0.9490" d="M70 0h1v1H70z"/><path fill="rgb(36 111 187)" fill-opacity="0.9490" d="M71 0h8v1H71z"/><path fill="rgb(36 112 187)" fill-opacity="0.9490" d="M79 0h3v1H79z"/><path fill="rgb(37 112 187)" fill-opacity="0.9490" d="M82 0h2v1H82z"/><path fill="rgb(37 112 184)" fill-opacity="0.9490" d="M84 0h2v1H84z"/><path fill="rgb(37 112 185)" fill-opacity="0.9490" d="M86 0h5v1H86zM92 0h1v1H92zM98 0h1v1H98z"/><path fill="rgb(38 112 185)" fill-opacity="0.9490" d="M91 0h1v1H91zM97 0h1v1H97zM99 0h1v1H99z"/><path fill="rgb(38 113 185)" fill-opacity="0.9490" d="M93 0h4v1H93zM100 0h5v1H100z"/><path fill="rgb(39 113 187)" fill-opacity="0.9490" d="M105 0h1v1H105z"/><path fill="rgb(38 113 187)" fill-opacity="0.9490" d="M106 0h2v1H106z"/><path fill="rgb(39 114 185)" fill-opacity="0.9490" d="M108 0h1v1H108zM110 0h1v1H110zM112 0h1v1H112zM119 0h4v1H119z"/><path fill="rgb(39 113 185)" fill-opacity="0.9490" d="M109 0h1v1H109zM111 0h1v1H111zM116 0h3v1H116z"/><path fill="rgb(39 114 187)" fill-opacity="0.9490" d="M113 0h3v1H113z"/><path fill="rgb(40 114 187)" fill-opacity="0.9490" d="M123 0h1v1H123z"/><path fill="rgb(41 114 187)" fill-opacity="0.9490" d="M124 0h1v1H124z"/><path fill="rgb(41 115 187)" fill-opacity="0.9490" d="M125 0h6v1H125z"/><path fill="rgb(42 115 187)" fill-opacity="0.9490" d="M131 0h4v1H131zM139 0h1v1H139zM141 0h1v1H141z"/><path fill="rgb(42 116 187)" fill-opacity="0.9490" d="M135 0h4v1H135zM140 0h1v1H140zM142 0h1v1H142z"/><path fill="rgb(43 116 187)" fill-opacity="0.9490" d="M143 0h7v1H143zM151 0h2v1H151z"/><path fill="rgb(43 117 187)" fill-opacity="0.9490" d="M150 0h1v1H150zM153 0h1v1H153z"/><path fill="rgb(44 117 188)" fill-opacity="0.9490" d="M154 0h4v1H154z"/><path fill="rgb(44 117 187)" fill-opacity="0.9490" d="M158 0h2v1H158z"/><path fill="rgb(44 116 187)" fill-opacity="0.9490" d="M160 0h1v1H160z"/><path fill="rgb(46 116 188)" fill-opacity="0.9490" d="M161 0h3v1H161z"/><path fill="rgb(46 117 188)" fill-opacity="0.9490" d="M164 0h4v1H164z"/><path fill="rgb(47 117 187)" fill-opacity="0.9490" d="M168 0h1v1H168zM170 0h2v1H170z"/><path fill="rgb(47 118 187)" fill-opacity="0.9490" d="M169 0h1v1H169zM172 0h1v1H172zM174 0h1v1H174z"/><path fill="rgb(47 118 188)" fill-opacity="0.9490" d="M173 0h1v1H173z"/><path fill="rgb(48 118 188)" fill-opacity="0.9490" d="M175 0h1v1H175z"/><path fill="rgb(28 105 183)" fill-opacity="0.9490" d="M176 0h1v1H176z"/><path fill="rgb(58 123 187)" fill-opacity="0.9490" d="M177 0h1v1H177z"/><path fill="rgb(247 248 249)" fill-opacity="0.9490" d="M178 0h1v1H178z"/><path fill="rgb(255 255 255)" fill-opacity="0.8980" d="M181 0h1v1H181zM181 43h1v1H181z"/><path fill="#ffffff" d="M0 1h45v1H0zM178 1h4v1H178zM0 2h44v1H0zM178 2h3v1H178zM0 3h44v1H0zM177 3h4v1H177zM0 4h43v1H0zM177 4h4v1H177zM0 5h43v1H0zM110 5h71v1H110zM0 6h43v1H0zM176 6h5v1H176zM0 7h42v1H0zM176 7h5v1H176zM0 8h42v1H0zM175 8h6v1H175zM0 9h41v1H0zM175 9h6v1H175zM0 10h23v1H0zM39 10h2v1H39zM99 10h82v1H99zM0 11h22v1H0zM39 11h2v1H39zM174 11h7v1H174zM0 12h22v1H0zM38 12h2v1H38zM174 12h7v1H174zM0 13h22v1H0zM38 13h2v1H38zM174 13h7v1H174zM0 14h21v1H0zM38 14h1v1H38zM173 14h8v1H173zM0 15h21v1H0zM37 15h2v1H37zM105 15h76v1H105zM0 16h21v1H0zM37 16h2v1H37zM172 16h9v1H172zM0 17h9v1H0zM37 17h1v1H37zM172 17h9v1H172zM0 18h8v1H0zM36 18h2v1H36zM172 18h9v1H172zM0 19h8v1H0zM36 19h1v1H36zM171 19h10v1H171zM0 20h7v1H0zM36 20h1v1H36zM89 20h92v1H89zM0 21h7v1H0zM35 21h2v1H35zM170 21h11v1H170zM0 22h6v1H0zM35 22h1v1H35zM170 22h11v1H170zM0 23h6v1H0zM35 23h1v1H35zM169 23h12v1H169zM0 24h6v1H0zM34 24h1v1H34zM169 24h12v1H169zM0 25h5v1H0zM34 25h1v1H34zM168 25h13v1H168zM0 26h5v1H0zM33 26h2v1H33zM168 26h13v1H168zM0 27h4v1H0zM21 27h8v1H21zM33 27h18v1H33zM57 27h124v1H57zM0 28h4v1H0zM20 28h1v1H20zM29 28h2v1H29zM33 28h6v1H33zM44 28h5v1H44zM58 28h123v1H58zM0 29h3v1H0zM19 29h1v1H19zM30 29h7v1H30zM45 29h3v1H45zM60 29h7v1H60zM77 29h71v1H77zM152 29h7v1H152zM163 29h18v1H163zM0 30h3v1H0zM18 30h1v1H18zM31 30h5v1H31zM45 30h2v1H45zM61 30h5v1H61zM77 30h70v1H77zM151 30h8v1H151zM163 30h18v1H163zM0 31h2v1H0zM17 31h1v1H17zM32 31h4v1H32zM40 31h1v1H40zM45 31h1v1H45zM61 31h5v1H61zM76 31h71v1H76zM150 31h8v1H150zM162 31h19v1H162zM0 32h2v1H0zM16 32h1v1H16zM33 32h3v1H33zM44 32h2v1H44zM52 32h4v1H52zM62 32h7v1H62zM72 32h4v1H72zM83 32h1v1H83zM93 32h2v1H93zM105 32h1v1H105zM126 32h2v1H126zM137 32h1v1H137zM153 32h5v1H153zM161 32h1v1H161zM172 32h2v1H172zM0 33h2v1H0zM16 33h1v1H16zM22 33h6v1H22zM33 33h3v1H33zM43 33h3v1H43zM51 33h6v1H51zM62 33h6v1H62zM72 33h3v1H72zM93 33h1v1H93zM126 33h1v1H126zM137 33h1v1H137zM152 33h5v1H152zM161 33h1v1H161zM172 33h1v1H172zM0 34h1v1H0zM16 34h1v1H16zM22 34h1v1H22zM33 34h3v1H33zM42 34h1v1H42zM50 34h1v1H50zM62 34h6v1H62zM71 34h3v1H71zM82 34h1v1H82zM93 34h1v1H93zM104 34h1v1H104zM115 34h1v1H115zM126 34h1v1H126zM137 34h1v1H137zM152 34h5v1H152zM160 34h1v1H160zM172 34h1v1H172zM0 35h1v1H0zM15 35h2v1H15zM21 35h2v1H21zM33 35h1v1H33zM41 35h1v1H41zM50 35h1v1H50zM62 35h5v1H62zM71 35h3v1H71zM78 35h5v1H78zM88 35h1v1H88zM92 35h1v1H92zM97 35h3v1H97zM113 35h2v1H113zM119 35h3v1H119zM125 35h1v1H125zM130 35h3v1H130zM136 35h1v1H136zM141 35h4v1H141zM149 35h7v1H149zM160 35h1v1H160zM164 35h4v1H164zM171 35h1v1H171zM176 35h5v1H176zM15 36h2v1H15zM21 36h2v1H21zM33 36h1v1H33zM45 36h1v1H45zM50 36h1v1H50zM62 36h5v1H62zM70 36h4v1H70zM77 36h5v1H77zM92 36h1v1H92zM96 36h4v1H96zM103 36h1v1H103zM114 36h1v1H114zM118 36h3v1H118zM125 36h1v1H125zM129 36h4v1H129zM136 36h1v1H136zM140 36h4v1H140zM148 36h8v1H148zM159 36h1v1H159zM164 36h3v1H164zM171 36h1v1H171zM175 36h6v1H175zM15 37h2v1H15zM22 37h1v1H22zM37 37h1v1H37zM45 37h1v1H45zM51 37h6v1H51zM62 37h4v1H62zM70 37h3v1H70zM77 37h4v1H77zM91 37h1v1H91zM96 37h3v1H96zM103 37h1v1H103zM118 37h3v1H118zM124 37h1v1H124zM128 37h4v1H128zM140 37h4v1H140zM147 37h8v1H147zM159 37h1v1H159zM163 37h4v1H163zM170 37h1v1H170zM174 37h7v1H174zM15 38h2v1H15zM22 38h6v1H22zM37 38h2v1H37zM44 38h2v1H44zM52 38h4v1H52zM61 38h5v1H61zM69 38h4v1H69zM76 38h4v1H76zM91 38h1v1H91zM95 38h4v1H95zM102 38h1v1H102zM105 38h1v1H105zM117 38h1v1H117zM124 38h1v1H124zM135 38h1v1H135zM139 38h4v1H139zM149 38h6v1H149zM158 38h1v1H158zM163 38h3v1H163zM170 38h1v1H170zM179 38h2v1H179zM14 39h3v1H14zM24 39h2v1H24zM43 39h3v1H43zM61 39h4v1H61zM69 39h3v1H69zM76 39h4v1H76zM95 39h3v1H95zM102 39h1v1H102zM123 39h1v1H123zM134 39h1v1H134zM139 39h4v1H139zM149 39h5v1H149zM158 39h1v1H158zM162 39h4v1H162zM169 39h1v1H169zM179 39h2v1H179zM14 40h4v1H14zM32 40h1v1H32zM44 40h3v1H44zM60 40h4v1H60zM68 40h3v1H68zM75 40h5v1H75zM90 40h1v1H90zM94 40h3v1H94zM101 40h1v1H101zM112 40h1v1H112zM123 40h1v1H123zM138 40h5v1H138zM149 40h5v1H149zM157 40h1v1H157zM162 40h3v1H162zM169 40h1v1H169zM179 40h2v1H179zM13 41h5v1H13zM31 41h2v1H31zM45 41h3v1H45zM60 41h4v1H60zM68 41h3v1H68zM75 41h6v1H75zM89 41h2v1H89zM94 41h3v1H94zM101 41h1v1H101zM111 41h1v1H111zM121 41h4v1H121zM132 41h2v1H132zM138 41h6v1H138zM148 41h6v1H148zM157 41h1v1H157zM161 41h4v1H161zM168 41h3v1H168zM178 41h3v1H178zM0 42h19v1H0zM31 42h4v1H31zM39 42h1v1H39zM45 42h4v1H45zM58 42h54v1H58zM116 42h66v1H116z"/><path fill="#4f8dc5" d="M45 1h1v1H45z"/><path fill="#0054b4" d="M46 1h1v1H46z"/><path fill="#176cbe" d="M47 1h1v1H47z"/><path fill="#166cbd" d="M48 1h3v1H48z"/><path fill="#156bbe" d="M51 1h1v1H51z"/><path fill="#156bbf" d="M52 1h7v1H52z"/><path fill="#146cbf" d="M59 1h1v1H59z"/><path fill="#146bbf" d="M60 1h9v1H60zM70 1h14v1H70z"/><path fill="#136bbf" d="M69 1h1v1H69z"/><path fill="#146bbe" d="M84 1h1v1H84z"/><path fill="#136bbd" d="M85 1h1v1H85zM31 25h1v1H31zM21 41h1v1H21z"/><path fill="#136abe" d="M86 1h14v1H86z"/><path fill="#126abe" d="M100 1h1v1H100zM104 1h1v1H104zM108 1h1v1H108z"/><path fill="#126abd" d="M101 1h3v1H101zM105 1h3v1H105z"/><path fill="#1269be" d="M109 1h11v1H109zM121 1h1v1H121z"/><path fill="#1169be" d="M120 1h1v1H120zM122 1h1v1H122z"/><path fill="#106abe" d="M123 1h8v1H123z"/><path fill="#1069be" d="M131 1h8v1H131z"/><path fill="#0f69bd" d="M139 1h3v1H139zM143 1h10v1H143z"/><path fill="#0f69be" d="M142 1h1v1H142z"/><path fill="#0f68bd" d="M153 1h6v1H153zM160 1h5v1H160z"/><path fill="#0e68bd" d="M159 1h1v1H159z"/><path fill="#0f67bd" d="M165 1h3v1H165z"/><path fill="#0e67bd" d="M168 1h1v1H168zM173 1h1v1H173z"/><path fill="#0f67be" d="M169 1h3v1H169z"/><path fill="#0e67be" d="M172 1h1v1H172zM174 1h1v1H174z"/><path fill="#1068be" d="M175 1h1v1H175z"/><path fill="#0047b0" d="M176 1h1v1H176z"/><path fill="#6ea0d2" d="M177 1h1v1H177z"/><path fill="#dbe6ef" d="M44 2h1v1H44z"/><path fill="#025bb0" d="M45 2h1v1H45z"/><path fill="#106abd" d="M46 2h1v1H46z"/><path fill="#1a6dbd" d="M47 2h128v1H47zM47 3h61v1H47zM47 4h61v1H47zM46 5h62v1H46zM46 6h62v1H46zM45 7h54v1H45zM45 8h52v1H45zM45 9h52v1H45zM44 10h53v1H44zM44 11h53v1H44zM43 12h54v1H43zM25 13h10v1H25zM43 13h60v1H43zM24 14h11v1H24zM43 14h59v1H43zM24 15h10v1H24zM42 15h60v1H42zM24 16h10v1H24zM42 16h60v1H42zM23 17h11v1H23zM41 17h45v1H41zM23 18h10v1H23zM41 18h47v1H41zM23 19h10v1H23zM40 19h46v1H40zM10 20h23v1H10zM40 20h46v1H40zM10 21h22v1H10zM40 21h46v1H40zM10 22h22v1H10zM39 22h47v1H39zM9 23h23v1H9zM39 23h127v1H39zM9 24h13v1H9zM27 24h1v1H27zM29 24h2v1H29zM39 24h127v1H39zM8 25h11v1H8zM8 26h10v1H8zM7 27h9v1H7zM7 28h9v1H7zM6 29h9v1H6zM6 30h8v1H6zM6 31h8v1H6zM5 32h8v1H5zM5 33h8v1H5zM4 34h9v1H4zM4 35h9v1H4zM3 36h9v1H3zM3 37h9v1H3zM30 37h1v1H30zM3 38h8v1H3z"/><path fill="#1169bd" d="M175 2h1v1H175z"/><path fill="#035ab3" d="M176 2h1v1H176z"/><path fill="#d9e4ef" d="M177 2h1v1H177z"/><path fill="#86aed7" d="M44 3h1v1H44zM60 31h1v1H60z"/><path fill="#004eaf" d="M45 3h1v1H45zM115 37h1v1H115zM18 38h1v1H18zM27 42h1v1H27z"/><path fill="#1c6ebe" d="M46 3h1v1H46zM97 8h1v1H97zM43 11h1v1H43zM24 13h1v1H24zM42 13h1v1H42zM40 18h1v1H40zM9 21h1v1H9zM87 22h1v1H87zM166 23h1v1H166zM12 36h1v1H12z"/><path fill="#1d6fbe" d="M108 3h1v1H108zM6 28h1v1H6z"/><path fill="#166bbd" d="M109 3h1v1H109zM99 7h1v1H99zM54 29h1v1H54zM23 30h1v1H23z"/><path fill="#0054b2" d="M110 3h1v1H110zM42 11h1v1H42zM100 12h3v1H100zM101 33h1v1H101zM48 34h1v1H48zM2 35h1v1H2zM29 38h1v1H29z"/><path fill="#0053b1" d="M111 3h64v1H111zM52 28h1v1H52zM52 30h1v1H52zM60 36h1v1H60z"/><path fill="#003aa7" d="M175 3h1v1H175zM107 33h1v1H107zM129 33h1v1H129zM172 37h1v1H172zM156 38h1v1H156z"/><path fill="#3a80c2" d="M176 3h1v1H176zM17 36h1v1H17z"/><path fill="#fffefc" d="M43 4h1v1H43zM41 9h1v1H41zM60 30h1v1H60zM143 38h1v1H143z"/><path fill="#2b75bb" d="M44 4h1v1H44z"/><path fill="#045eb8" d="M45 4h1v1H45z"/><path fill="#1b6dbd" d="M46 4h1v1H46zM44 9h1v1H44zM42 14h1v1H42zM34 15h1v1H34zM86 17h1v1H86zM22 19h1v1H22zM9 22h1v1H9zM28 24h1v1H28zM38 24h1v1H38zM16 27h1v1H16zM13 32h1v1H13zM2 38h1v1H2zM11 38h1v1H11z"/><path fill="#1168bb" d="M108 4h1v1H108zM56 30h1v1H56z"/><path fill="#2171bd" d="M109 4h1v1H109z"/><path fill="#7ca8d2" d="M110 4h1v1H110z"/><path fill="#80abd3" d="M111 4h64v1H111zM173 38h1v1H173z"/><path fill="#6f9aca" d="M175 4h1v1H175z"/><path fill="#c2d6e8" d="M176 4h1v1H176zM112 39h1v1H112z"/><path fill="#b3c9e1" d="M43 5h1v1H43z"/><path fill="#004fac" d="M44 5h1v1H44z"/><path fill="#196dbe" d="M45 5h1v1H45zM59 36h1v1H59z"/><path fill="#005db8" d="M108 5h1v1H108zM106 36h1v1H106z"/><path fill="#3179be" d="M109 5h1v1H109zM7 40h1v1H7z"/><path fill="#4c8ac5" d="M43 6h1v1H43zM89 21h2v1H89zM92 21h75v1H92zM163 26h2v1H163z"/><path fill="#0055b3" d="M44 6h1v1H44zM99 12h1v1H99zM35 15h1v1H35zM34 18h1v1H34zM30 26h1v1H30zM54 28h1v1H54zM147 34h1v1H147zM52 40h1v1H52z"/><path fill="#1c6ebd" d="M45 6h1v1H45zM31 24h1v1H31zM7 26h1v1H7zM3 35h1v1H3z"/><path fill="#1067bb" d="M108 6h1v1H108z"/><path fill="#2271be" d="M109 6h1v1H109z"/><path fill="#8bb2d7" d="M110 6h1v1H110z"/><path fill="#91b5d9" d="M111 6h1v1H111zM170 40h1v1H170z"/><path fill="#90b4da" d="M112 6h61v1H112z"/><path fill="#92b5da" d="M173 6h1v1H173z"/><path fill="#7ba3d1" d="M174 6h1v1H174z"/><path fill="#b8cee3" d="M175 6h1v1H175z"/><path fill="#e2eaf1" d="M42 7h1v1H42zM104 41h1v1H104z"/><path fill="#045eb2" d="M43 7h1v1H43z"/><path fill="#1068bd" d="M44 7h1v1H44z"/><path fill="#166bbc" d="M100 7h8v1H100zM87 21h1v1H87z"/><path fill="#196dbd" d="M108 7h1v1H108zM102 16h1v1H102z"/><path fill="#1269bc" d="M109 7h1v1H109zM24 24h1v1H24zM29 25h1v1H29zM26 30h1v1H26z"/><path fill="#0050af" d="M110 7h1v1H110zM66 39h1v1H66z"/><path fill="#004eae" d="M111 7h1v1H111zM43 8h1v1H43zM41 13h1v1H41zM34 19h1v1H34zM8 21h1v1H8zM111 38h1v1H111z"/><path fill="#004faf" d="M112 7h61v1H112zM32 24h1v1H32zM41 33h1v1H41zM1 37h1v1H1zM31 37h1v1H31zM114 41h1v1H114z"/><path fill="#004dae" d="M173 7h1v1H173zM37 23h1v1H37zM5 28h1v1H5zM4 30h1v1H4zM18 33h1v1H18zM170 34h1v1H170zM102 35h1v1H102z"/><path fill="#0036a0" d="M174 7h1v1H174z"/><path fill="#a9c4dd" d="M175 7h1v1H175zM173 11h1v1H173z"/><path fill="#86afd5" d="M42 8h1v1H42zM147 36h1v1H147z"/><path fill="#1b6ebe" d="M44 8h1v1H44zM35 13h1v1H35zM103 13h1v1H103zM33 19h1v1H33zM55 29h1v1H55zM2 37h1v1H2z"/><path fill="#186cbc" d="M98 8h1v1H98z"/><path fill="#015cb3" d="M99 8h1v1H99zM23 31h1v1H23z"/><path fill="#005bb4" d="M100 8h1v1H100zM109 8h2v1H109z"/><path fill="#005bb3" d="M101 8h8v1H101zM111 8h62v1H111z"/><path fill="#0047ab" d="M173 8h1v1H173z"/><path fill="#327abd" d="M174 8h1v1H174z"/><path fill="#2673bb" d="M42 9h1v1H42z"/><path fill="#045fb8" d="M43 9h1v1H43z"/><path fill="#0b65bb" d="M97 9h1v1H97zM102 17h1v1H102z"/><path fill="#2672bc" d="M98 9h1v1H98z"/><path fill="#bbcfe3" d="M99 9h1v1H99z"/><path fill="#c0d5e9" d="M100 9h1v1H100zM172 9h1v1H172z"/><path fill="#c0d4e9" d="M101 9h71v1H101z"/><path fill="#b5cae4" d="M173 9h1v1H173z"/><path fill="#dde7f1" d="M174 9h1v1H174z"/><path fill="#fffffd" d="M23 10h1v1H23zM36 33h1v1H36zM61 33h1v1H61zM105 33h1v1H105zM34 35h1v1H34zM90 39h1v1H90z"/><path fill="#f5f5f7" d="M24 10h1v1H24z"/><path fill="#f8f8f9" d="M25 10h11v1H25zM4 41h1v1H4z"/><path fill="#f9fafa" d="M36 10h1v1H36zM3 29h1v1H3z"/><path fill="#f0f3f7" d="M37 10h1v1H37zM177 38h1v1H177z"/><path fill="#f9fafc" d="M38 10h1v1H38z"/><path fill="#adc6e0" d="M41 10h1v1H41z"/><path fill="#004fae" d="M42 10h1v1H42zM36 13h1v1H36zM35 16h1v1H35zM38 20h1v1H38zM13 36h1v1H13zM37 41h1v1H37z"/><path fill="#186ebe" d="M43 10h1v1H43z"/><path fill="#005db7" d="M97 10h1v1H97zM41 32h1v1H41zM18 36h1v1H18z"/><path fill="#3078be" d="M98 10h1v1H98zM170 35h1v1H170z"/><path fill="#fffffe" d="M22 11h1v1H22zM173 13h1v1H173zM171 18h1v1H171zM18 29h1v1H18zM151 29h1v1H151zM36 30h1v1H36zM116 32h1v1H116zM152 32h1v1H152zM151 34h1v1H151zM175 35h1v1H175zM144 36h1v1H144zM14 38h1v1H14zM80 38h1v1H80zM64 40h1v1H64zM97 40h1v1H97zM12 41h1v1H12zM44 41h1v1H44zM59 41h1v1H59zM64 41h1v1H64zM97 41h1v1H97zM137 41h1v1H137zM30 42h1v1H30zM40 42h1v1H40zM44 42h1v1H44zM115 42h1v1H115z"/><path fill="#4987c2" d="M23 11h1v1H23z"/><path fill="#1767b7" d="M24 11h1v1H24z"/><path fill="#2c76bc" d="M25 11h6v1H25z"/><path fill="#2c76bd" d="M31 11h5v1H31z"/><path fill="#1b6cb9" d="M36 11h1v1H36zM129 39h1v1H129z"/><path fill="#3377ba" d="M37 11h1v1H37z"/><path fill="#f1f4f7" d="M38 11h1v1H38z"/><path fill="#4f8cc6" d="M41 11h1v1H41z"/><path fill="#1168bc" d="M97 11h1v1H97zM20 31h1v1H20z"/><path fill="#2170bc" d="M98 11h1v1H98zM86 39h1v1H86z"/><path fill="#74a2d0" d="M99 11h1v1H99z"/><path fill="#78a5d2" d="M100 11h1v1H100z"/><path fill="#77a5d2" d="M101 11h70v1H101z"/><path fill="#79a5d3" d="M171 11h1v1H171z"/><path fill="#6192c9" d="M172 11h1v1H172z"/><path fill="#c5d6e6" d="M22 12h1v1H22z"/><path fill="#004cac" d="M23 12h1v1H23zM7 23h1v1H7zM94 35h1v1H94z"/><path fill="#005eb9" d="M24 12h1v1H24z"/><path fill="#0661b9" d="M25 12h10v1H25zM21 25h1v1H21zM3 39h2v1H3z"/><path fill="#0762b9" d="M35 12h1v1H35zM2 39h1v1H2z"/><path fill="#0047ae" d="M36 12h1v1H36zM69 30h1v1H69zM95 34h1v1H95zM54 35h1v1H54z"/><path fill="#4687c7" d="M37 12h1v1H37z"/><path fill="#e6ecf3" d="M40 12h1v1H40z"/><path fill="#0b60b3" d="M41 12h1v1H41zM47 31h1v1H47z"/><path fill="#0e67bb" d="M42 12h1v1H42zM39 35h1v1H39z"/><path fill="#1e6fbe" d="M97 12h1v1H97z"/><path fill="#176cbd" d="M98 12h1v1H98zM23 15h1v1H23zM23 24h1v1H23zM53 41h2v1H53z"/><path fill="#0055b2" d="M103 12h1v1H103zM55 30h1v1H55zM50 31h1v1H50zM27 40h1v1H27z"/><path fill="#0051b1" d="M104 12h1v1H104zM48 35h1v1H48z"/><path fill="#004fb0" d="M105 12h66v1H105z"/><path fill="#004cb0" d="M171 12h1v1H171zM102 33h1v1H102z"/><path fill="#0036a2" d="M172 12h1v1H172z"/><path fill="#aac5df" d="M173 12h1v1H173z"/><path fill="#6c9ccc" d="M22 13h1v1H22zM91 32h1v1H91z"/><path fill="#0050b0" d="M23 13h1v1H23z"/><path fill="#99badb" d="M37 13h1v1H37zM35 25h1v1H35z"/><path fill="#84aed4" d="M40 13h1v1H40zM111 40h1v1H111z"/><path fill="#1267b9" d="M104 13h1v1H104z"/><path fill="#0e64b8" d="M105 13h1v1H105z"/><path fill="#0d63b8" d="M106 13h65v1H106z"/><path fill="#0051b0" d="M171 13h1v1H171zM22 16h1v1H22zM69 33h1v1H69z"/><path fill="#387dbd" d="M172 13h1v1H172z"/><path fill="#f9f9fa" d="M21 14h1v1H21z"/><path fill="#1d6fbb" d="M22 14h1v1H22z"/><path fill="#0662ba" d="M23 14h1v1H23zM56 29h1v1H56z"/><path fill="#0d67bc" d="M35 14h1v1H35z"/><path fill="#0c63b3" d="M36 14h1v1H36zM89 39h1v1H89z"/><path fill="#e7ecf1" d="M37 14h1v1H37z"/><path fill="#fdfcfa" d="M39 14h1v1H39z"/><path fill="#2372b9" d="M40 14h1v1H40z"/><path fill="#055fb9" d="M41 14h1v1H41z"/><path fill="#186cbd" d="M102 14h1v1H102zM86 21h1v1H86z"/><path fill="#045ab3" d="M103 14h1v1H103z"/><path fill="#91b4d8" d="M104 14h1v1H104z"/><path fill="#d8e5f2" d="M105 14h1v1H105z"/><path fill="#d6e4f2" d="M106 14h64v1H106z"/><path fill="#d7e4f2" d="M170 14h1v1H170z"/><path fill="#cddbed" d="M171 14h1v1H171z"/><path fill="#eef1f6" d="M172 14h1v1H172z"/><path fill="#bad0e5" d="M21 15h1v1H21zM115 35h1v1H115z"/><path fill="#0053b0" d="M22 15h1v1H22zM27 25h1v1H27zM53 40h1v1H53z"/><path fill="#508dc6" d="M36 15h1v1H36zM70 34h1v1H70z"/><path fill="#abc7e0" d="M39 15h1v1H39z"/><path fill="#004fad" d="M40 15h1v1H40zM27 29h1v1H27zM14 33h1v1H14zM34 37h1v1H34zM35 38h1v1H35z"/><path fill="#196ebe" d="M41 15h1v1H41zM39 20h1v1H39zM4 32h1v1H4z"/><path fill="#176bbc" d="M102 15h1v1H102z"/><path fill="#0051ad" d="M103 15h1v1H103zM68 35h1v1H68z"/><path fill="#cedbe7" d="M104 15h1v1H104z"/><path fill="#6398ca" d="M21 16h1v1H21z"/><path fill="#1b6ebd" d="M23 16h1v1H23zM41 16h1v1H41zM87 17h1v1H87zM33 18h1v1H33zM32 21h1v1H32zM39 21h1v1H39zM86 22h1v1H86zM8 24h1v1H8zM19 25h1v1H19zM14 30h1v1H14zM5 31h1v1H5zM4 33h1v1H4z"/><path fill="#1a6ebe" d="M34 16h1v1H34zM21 19h1v1H21zM8 23h1v1H8zM20 25h1v1H20zM52 29h1v1H52z"/><path fill="#a2bfdc" d="M36 16h1v1H36z"/><path fill="#5690c7" d="M39 16h1v1H39z"/><path fill="#0053b3" d="M40 16h1v1H40zM16 29h1v1H16zM57 35h1v1H57z"/><path fill="#1166b9" d="M103 16h1v1H103z"/><path fill="#4685c3" d="M104 16h1v1H104z"/><path fill="#6297cb" d="M105 16h1v1H105z"/><path fill="#6196cb" d="M106 16h63v1H106z"/><path fill="#6398cc" d="M169 16h1v1H169z"/><path fill="#4780c2" d="M170 16h1v1H170z"/><path fill="#a1bfdc" d="M171 16h1v1H171z"/><path fill="#eff4f6" d="M9 17h1v1H9z"/><path fill="#e2eaf2" d="M10 17h1v1H10zM51 35h1v1H51zM98 39h1v1H98zM118 41h1v1H118z"/><path fill="#e7edf4" d="M11 17h3v1H11zM155 37h1v1H155z"/><path fill="#e8edf4" d="M14 17h3v1H14zM18 17h1v1H18z"/><path fill="#e9edf4" d="M17 17h1v1H17zM19 17h1v1H19z"/><path fill="#d7e0eb" d="M20 17h1v1H20z"/><path fill="#1969b9" d="M21 17h1v1H21z"/><path fill="#0a65bb" d="M22 17h1v1H22zM33 20h1v1H33zM58 31h1v1H58zM145 39h1v1H145z"/><path fill="#0a66ba" d="M34 17h1v1H34z"/><path fill="#1567b8" d="M35 17h1v1H35z"/><path fill="#f0f2f6" d="M36 17h1v1H36z"/><path fill="#e4ebf1" d="M38 17h1v1H38zM19 28h1v1H19z"/><path fill="#0a5fb1" d="M39 17h1v1H39zM47 39h1v1H47z"/><path fill="#0e68bc" d="M40 17h1v1H40z"/><path fill="#0e66bb" d="M88 17h1v1H88z"/><path fill="#0b64bb" d="M89 17h13v1H89zM39 34h1v1H39z"/><path fill="#0f68bc" d="M103 17h1v1H103zM38 22h1v1H38zM59 37h1v1H59z"/><path fill="#0056b6" d="M104 17h1v1H104z"/><path fill="#004db1" d="M105 17h64v1H105z"/><path fill="#0049b0" d="M169 17h1v1H169z"/><path fill="#0037a3" d="M170 17h1v1H170z"/><path fill="#b5cce3" d="M171 17h1v1H171z"/><path fill="#dde6ef" d="M8 18h1v1H8zM159 29h1v1H159zM99 37h1v1H99z"/><path fill="#1562b2" d="M9 18h1v1H9zM81 40h1v1H81z"/><path fill="#1267b6" d="M10 18h1v1H10z"/><path fill="#1c6cb9" d="M11 18h1v1H11z"/><path fill="#1e6cb9" d="M12 18h3v1H12zM18 18h1v1H18z"/><path fill="#1e6db9" d="M15 18h2v1H15z"/><path fill="#1f6db9" d="M17 18h1v1H17z"/><path fill="#1e6db8" d="M19 18h1v1H19zM18 32h1v1H18z"/><path fill="#1668b7" d="M20 18h1v1H20z"/><path fill="#1267bb" d="M21 18h1v1H21z"/><path fill="#1c6fbe" d="M22 18h1v1H22zM38 23h1v1H38zM30 25h1v1H30zM56 40h1v1H56z"/><path fill="#508cc7" d="M35 18h1v1H35z"/><path fill="#81abd3" d="M38 18h1v1H38z"/><path fill="#004dad" d="M39 18h1v1H39zM3 32h1v1H3z"/><path fill="#1b6cbb" d="M88 18h1v1H88z"/><path fill="#1c6cbb" d="M89 18h80v1H89z"/><path fill="#0159b3" d="M169 18h1v1H169z"/><path fill="#528dc4" d="M170 18h1v1H170z"/><path fill="#6297cc" d="M8 19h1v1H8z"/><path fill="#0047ad" d="M9 19h1v1H9zM55 35h2v1H55zM19 40h1v1H19z"/><path fill="#0d65ba" d="M10 19h1v1H10z"/><path fill="#0c64ba" d="M11 19h1v1H11z"/><path fill="#0c64b9" d="M12 19h2v1H12z"/><path fill="#0b64b9" d="M14 19h5v1H14z"/><path fill="#0b65b9" d="M19 19h1v1H19z"/><path fill="#0d66bb" d="M20 19h1v1H20zM9 20h1v1H9zM38 34h1v1H38zM19 37h1v1H19z"/><path fill="#9cbddb" d="M35 19h1v1H35z"/><path fill="#fbfaf9" d="M37 19h1v1H37zM6 41h1v1H6zM67 41h1v1H67z"/><path fill="#226fba" d="M38 19h1v1H38z"/><path fill="#0560b9" d="M39 19h1v1H39zM6 39h1v1H6z"/><path fill="#1368bc" d="M86 19h1v1H86z"/><path fill="#0c63b7" d="M87 19h1v1H87zM123 34h1v1H123z"/><path fill="#c3d5e8" d="M88 19h1v1H88z"/><path fill="#eef3f7" d="M89 19h79v1H89z"/><path fill="#eff4f8" d="M168 19h1v1H168z"/><path fill="#e5ebf3" d="M169 19h1v1H169zM43 34h1v1H43z"/><path fill="#fcfcfc" d="M170 19h1v1H170zM71 40h1v1H71zM134 40h1v1H134zM71 41h1v1H71z"/><path fill="#e8eff4" d="M7 20h1v1H7z"/><path fill="#095fb3" d="M8 20h1v1H8z"/><path fill="#1367b5" d="M34 20h1v1H34z"/><path fill="#eff3f5" d="M35 20h1v1H35z"/><path fill="#b3cbe3" d="M37 20h1v1H37z"/><path fill="#1167bc" d="M86 20h1v1H86z"/><path fill="#0860b5" d="M87 20h1v1H87zM60 37h1v1H60z"/><path fill="#eef2f4" d="M88 20h1v1H88z"/><path fill="#83add4" d="M7 21h1v1H7zM133 34h1v1H133z"/><path fill="#0052b2" d="M33 21h1v1H33zM22 25h1v1H22zM6 26h1v1H6zM26 29h1v1H26zM37 35h1v1H37z"/><path fill="#6397cb" d="M34 21h1v1H34z"/><path fill="#5892c9" d="M37 21h1v1H37z"/><path fill="#0053b2" d="M38 21h1v1H38zM18 27h1v1H18zM23 29h1v1H23zM28 39h1v1H28z"/><path fill="#4183c3" d="M88 21h1v1H88z"/><path fill="#4c89c5" d="M91 21h1v1H91z"/><path fill="#4e8bc6" d="M167 21h1v1H167zM137 26h9v1H137zM56 36h1v1H56z"/><path fill="#2c70b8" d="M168 21h1v1H168z"/><path fill="#9cbcda" d="M169 21h1v1H169z"/><path fill="#f8f8f8" d="M6 22h1v1H6z"/><path fill="#196ab7" d="M7 22h1v1H7z"/><path fill="#0861ba" d="M8 22h1v1H8z"/><path fill="#186dbd" d="M32 22h1v1H32z"/><path fill="#0052af" d="M33 22h1v1H33zM20 26h1v1H20zM37 31h1v1H37zM160 31h1v1H160zM161 36h1v1H161z"/><path fill="#b8cee5" d="M34 22h1v1H34z"/><path fill="#e1e9f1" d="M36 22h1v1H36zM131 38h1v1H131zM158 40h1v1H158zM43 42h1v1H43z"/><path fill="#065db2" d="M37 22h1v1H37z"/><path fill="#015eb7" d="M88 22h1v1H88z"/><path fill="#005ab5" d="M89 22h78v1H89zM27 31h1v1H27zM29 32h1v1H29zM169 33h1v1H169zM59 35h1v1H59zM50 39h1v1H50z"/><path fill="#0053b4" d="M167 22h1v1H167z"/><path fill="#0049a9" d="M168 22h1v1H168z"/><path fill="#cedeeb" d="M169 22h1v1H169z"/><path fill="#97b7d7" d="M6 23h1v1H6z"/><path fill="#0762ba" d="M32 23h1v1H32zM26 41h1v1H26z"/><path fill="#1d6eb9" d="M33 23h1v1H33z"/><path fill="#f7faf9" d="M34 23h1v1H34z"/><path fill="#7da8d0" d="M36 23h1v1H36z"/><path fill="#0050b1" d="M167 23h1v1H167zM71 30h1v1H71zM34 38h1v1H34z"/><path fill="#6298cb" d="M168 23h1v1H168zM118 32h1v1H118z"/><path fill="#337bbf" d="M6 24h1v1H6z"/><path fill="#005ab6" d="M7 24h1v1H7zM53 25h1v1H53zM152 25h14v1H152zM24 29h2v1H24z"/><path fill="#1a6ebd" d="M22 24h1v1H22z"/><path fill="#1067bc" d="M25 24h1v1H25z"/><path fill="#156abd" d="M26 24h1v1H26zM52 41h1v1H52z"/><path fill="#6b9ecd" d="M33 24h1v1H33zM134 32h1v1H134z"/><path fill="#fefdfc" d="M35 24h1v1H35z"/><path fill="#2171b9" d="M36 24h1v1H36z"/><path fill="#0660b8" d="M37 24h1v1H37z"/><path fill="#136abd" d="M166 24h1v1H166z"/><path fill="#0057b0" d="M167 24h1v1H167zM160 38h1v1H160z"/><path fill="#d0deea" d="M168 24h1v1H168zM163 36h1v1H163z"/><path fill="#c4d6e6" d="M5 25h1v1H5z"/><path fill="#0054b0" d="M6 25h1v1H6z"/><path fill="#156cbe" d="M7 25h1v1H7z"/><path fill="#0056b0" d="M23 25h1v1H23zM31 38h1v1H31zM18 39h1v1H18z"/><path fill="#0a61b4" d="M24 25h1v1H24z"/><path fill="#0f64b6" d="M25 25h1v1H25z"/><path fill="#035db3" d="M26 25h1v1H26zM54 30h1v1H54z"/><path fill="#0058b4" d="M28 25h1v1H28zM37 25h10v1H37zM18 37h1v1H18z"/><path fill="#0057af" d="M32 25h1v1H32z"/><path fill="#cedcea" d="M33 25h1v1H33z"/><path fill="#003aa6" d="M36 25h1v1H36zM59 31h1v1H59z"/><path fill="#0058b5" d="M47 25h5v1H47zM55 25h5v1H55zM28 30h1v1H28zM3 33h1v1H3zM110 39h1v1H110z"/><path fill="#0059b5" d="M52 25h1v1H52zM54 25h1v1H54zM60 25h87v1H60zM148 25h2v1H148zM70 30h1v1H70zM90 33h1v1H90zM123 33h1v1H123zM19 35h1v1H19zM19 36h1v1H19zM58 37h1v1H58z"/><path fill="#0059b6" d="M147 25h1v1H147zM150 25h2v1H150zM31 26h1v1H31zM48 36h1v1H48z"/><path fill="#0043ac" d="M166 25h1v1H166zM117 34h1v1H117z"/><path fill="#377dbf" d="M167 25h1v1H167z"/><path fill="#558fc8" d="M5 26h1v1H5z"/><path fill="#1e70bf" d="M18 26h1v1H18zM21 31h1v1H21zM40 37h1v1H40z"/><path fill="#0761ba" d="M19 26h1v1H19z"/><path fill="#2370bb" d="M21 26h1v1H21z"/><path fill="#72a1cf" d="M22 26h1v1H22z"/><path fill="#b1c9e2" d="M23 26h1v1H23z"/><path fill="#d8e4ef" d="M24 26h1v1H24zM44 34h1v1H44zM154 41h1v1H154z"/><path fill="#dee8f1" d="M25 26h1v1H25zM119 41h1v1H119zM130 41h1v1H130z"/><path fill="#c6d9ea" d="M26 26h1v1H26z"/><path fill="#95b8d9" d="M27 26h1v1H27z"/><path fill="#4e8ac5" d="M28 26h1v1H28z"/><path fill="#045cb2" d="M29 26h1v1H29z"/><path fill="#4084c2" d="M32 26h1v1H32z"/><path fill="#83abd3" d="M35 26h1v1H35z"/><path fill="#3d7bc1" d="M36 26h1v1H36z"/><path fill="#5590ca" d="M37 26h1v1H37z"/><path fill="#538fc9" d="M38 26h3v1H38zM42 26h4v1H42zM57 26h1v1H57z"/><path fill="#548fc9" d="M41 26h1v1H41z"/><path fill="#528ec9" d="M46 26h1v1H46z"/><path fill="#528ec8" d="M47 26h3v1H47z"/><path fill="#5c96cd" d="M50 26h1v1H50z"/><path fill="#75a6d4" d="M51 26h1v1H51z"/><path fill="#7caad5" d="M52 26h1v1H52z"/><path fill="#76a5d1" d="M53 26h1v1H53zM4 28h1v1H4z"/><path fill="#7aa7d2" d="M54 26h1v1H54zM166 39h1v1H166z"/><path fill="#7ba9d5" d="M55 26h1v1H55z"/><path fill="#669cd0" d="M56 26h1v1H56z"/><path fill="#518ec8" d="M58 26h1v1H58z"/><path fill="#518dc7" d="M59 26h2v1H59zM65 26h5v1H65z"/><path fill="#518dc8" d="M61 26h4v1H61z"/><path fill="#508dc7" d="M70 26h14v1H70z"/><path fill="#4f8cc7" d="M84 26h44v1H84z"/><path fill="#4e8cc7" d="M128 26h6v1H128z"/><path fill="#4e8bc7" d="M134 26h3v1H134z"/><path fill="#4d8bc6" d="M146 26h8v1H146z"/><path fill="#4d8ac6" d="M154 26h5v1H154z"/><path fill="#4c8ac6" d="M159 26h4v1H159zM129 34h1v1H129z"/><path fill="#4b89c5" d="M165 26h1v1H165z"/><path fill="#3574ba" d="M166 26h1v1H166z"/><path fill="#b2cae1" d="M167 26h1v1H167z"/><path fill="#d9e3ed" d="M4 27h1v1H4z"/><path fill="#045ab1" d="M5 27h1v1H5z"/><path fill="#1069bc" d="M6 27h1v1H6z"/><path fill="#1c70bf" d="M17 27h1v1H17zM16 28h1v1H16zM19 33h1v1H19z"/><path fill="#1364b4" d="M19 27h1v1H19z"/><path fill="#97b9da" d="M20 27h1v1H20z"/><path fill="#cbdae9" d="M29 27h1v1H29z"/><path fill="#4d88c3" d="M30 27h1v1H30z"/><path fill="#00309f" d="M31 27h1v1H31z"/><path fill="#9abbdd" d="M32 27h1v1H32z"/><path fill="#d2dde8" d="M51 27h1v1H51z"/><path fill="#9cbbd8" d="M52 27h1v1H52z"/><path fill="#89afd3" d="M53 27h1v1H53z"/><path fill="#90b3d6" d="M54 27h1v1H54z"/><path fill="#b7cbe1" d="M55 27h1v1H55z"/><path fill="#fffaf6" d="M56 27h1v1H56z"/><path fill="#0052b1" d="M17 28h1v1H17zM18 34h1v1H18zM107 36h1v1H107zM22 40h1v1H22z"/><path fill="#397cbe" d="M18 28h1v1H18z"/><path fill="#fffdfb" d="M21 28h1v1H21zM121 36h1v1H121zM10 41h2v1H10z"/><path fill="#97b8d9" d="M22 28h1v1H22z"/><path fill="#5b93c8" d="M23 28h1v1H23z"/><path fill="#4283c4" d="M24 28h1v1H24z"/><path fill="#4584c7" d="M25 28h1v1H25z"/><path fill="#6497ca" d="M26 28h1v1H26z"/><path fill="#a4c1dd" d="M27 28h1v1H27z"/><path fill="#fffffc" d="M28 28h1v1H28zM135 37h1v1H135zM85 38h1v1H85z"/><path fill="#8cabd1" d="M31 28h1v1H31z"/><path fill="#e0e9f2" d="M32 28h1v1H32z"/><path fill="#d0ddeb" d="M39 28h1v1H39z"/><path fill="#97b8dc" d="M40 28h1v1H40z"/><path fill="#82a9d4" d="M41 28h1v1H41z"/><path fill="#9ebcdd" d="M42 28h1v1H42z"/><path fill="#fbfbfa" d="M43 28h1v1H43z"/><path fill="#c4d7e7" d="M49 28h1v1H49z"/><path fill="#3f7fc0" d="M50 28h1v1H50z"/><path fill="#0059b2" d="M51 28h1v1H51z"/><path fill="#0057b4" d="M53 28h1v1H53zM22 31h1v1H22zM134 33h1v1H134zM146 33h1v1H146z"/><path fill="#0055b1" d="M55 28h1v1H55zM21 32h1v1H21z"/><path fill="#1c69b7" d="M56 28h1v1H56zM110 40h1v1H110z"/><path fill="#8aaed5" d="M57 28h1v1H57z"/><path fill="#1c6dba" d="M4 29h1v1H4zM105 39h1v1H105z"/><path fill="#0861b9" d="M5 29h1v1H5z"/><path fill="#1d70bf" d="M15 29h1v1H15zM22 30h1v1H22zM22 41h1v1H22z"/><path fill="#3578bc" d="M17 29h1v1H17z"/><path fill="#9bbbd9" d="M20 29h1v1H20z"/><path fill="#1262b4" d="M21 29h1v1H21z"/><path fill="#004ead" d="M22 29h1v1H22zM39 29h1v1H39zM134 35h1v1H134z"/><path fill="#236cb8" d="M28 29h1v1H28z"/><path fill="#bfd2e4" d="M29 29h1v1H29z"/><path fill="#f7f8f8" d="M37 29h1v1H37z"/><path fill="#538fc6" d="M38 29h1v1H38z"/><path fill="#0036a3" d="M40 29h1v1H40zM166 33h1v1H166z"/><path fill="#0048ac" d="M41 29h1v1H41zM57 29h1v1H57zM116 35h1v1H116zM67 39h1v1H67zM58 40h1v1H58z"/><path fill="#004bad" d="M42 29h1v1H42zM47 32h1v1H47z"/><path fill="#2972b9" d="M43 29h1v1H43z"/><path fill="#e8edf3" d="M44 29h1v1H44z"/><path fill="#91b5d8" d="M48 29h1v1H48z"/><path fill="#004dab" d="M49 29h1v1H49zM48 40h1v1H48z"/><path fill="#0056b4" d="M50 29h1v1H50zM13 35h1v1H13zM25 41h1v1H25zM56 41h1v1H56z"/><path fill="#166cbe" d="M51 29h1v1H51zM30 38h1v1H30zM29 40h1v1H29z"/><path fill="#156bbd" d="M53 29h1v1H53zM20 39h1v1H20z"/><path fill="#3c7bbc" d="M58 29h1v1H58z"/><path fill="#fcfbfa" d="M59 29h1v1H59zM103 38h1v1H103zM7 41h1v1H7z"/><path fill="#d7e3f0" d="M67 29h1v1H67z"/><path fill="#6d9ace" d="M68 29h1v1H68z"/><path fill="#7daad7" d="M69 29h1v1H69z"/><path fill="#7fabd7" d="M70 29h1v1H70z"/><path fill="#7faad7" d="M71 29h1v1H71z"/><path fill="#7eabd7" d="M72 29h2v1H72z"/><path fill="#7dabd8" d="M74 29h1v1H74z"/><path fill="#6598cd" d="M75 29h1v1H75z"/><path fill="#d9e3ee" d="M76 29h1v1H76z"/><path fill="#bbd1e4" d="M148 29h1v1H148z"/><path fill="#7592c9" d="M149 29h1v1H149z"/><path fill="#98b8d8" d="M150 29h1v1H150z"/><path fill="#789fce" d="M160 29h1v1H160z"/><path fill="#74a3ce" d="M161 29h1v1H161z"/><path fill="#eff1f5" d="M162 29h1v1H162z"/><path fill="#96b8d9" d="M3 30h1v1H3z"/><path fill="#1b6fbe" d="M5 30h1v1H5z"/><path fill="#0960b8" d="M15 30h1v1H15z"/><path fill="#1363b4" d="M16 30h1v1H16z"/><path fill="#f0f3f6" d="M17 30h1v1H17zM113 39h1v1H113z"/><path fill="#83acd3" d="M19 30h1v1H19z"/><path fill="#004aab" d="M20 30h1v1H20zM101 37h1v1H101zM57 41h1v1H57z"/><path fill="#015eb8" d="M21 30h1v1H21zM11 39h1v1H11z"/><path fill="#0963b9" d="M24 30h1v1H24zM40 36h1v1H40z"/><path fill="#0761b9" d="M25 30h1v1H25z"/><path fill="#1b6fbf" d="M27 30h1v1H27zM29 39h1v1H29z"/><path fill="#004eac" d="M29 30h1v1H29zM114 39h1v1H114zM147 39h1v1H147z"/><path fill="#a7c4dd" d="M30 30h1v1H30z"/><path fill="#528dc6" d="M37 30h1v1H37zM36 39h1v1H36z"/><path fill="#003ba8" d="M38 30h1v1H38zM173 35h1v1H173z"/><path fill="#2573be" d="M39 30h1v1H39z"/><path fill="#9fbfdd" d="M40 30h1v1H40zM91 36h1v1H91z"/><path fill="#4d8dca" d="M41 30h1v1H41z"/><path fill="#0960b9" d="M42 30h1v1H42z"/><path fill="#0046aa" d="M43 30h1v1H43zM52 35h1v1H52z"/><path fill="#a9c4de" d="M44 30h1v1H44z"/><path fill="#aec7e0" d="M47 30h1v1H47z"/><path fill="#004aad" d="M48 30h1v1H48zM47 38h1v1H47z"/><path fill="#0a64ba" d="M49 30h1v1H49z"/><path fill="#1f71c0" d="M50 30h1v1H50z"/><path fill="#0460b8" d="M51 30h1v1H51z"/><path fill="#045db2" d="M53 30h1v1H53zM13 37h1v1H13z"/><path fill="#1d71bf" d="M57 30h1v1H57z"/><path fill="#004cae" d="M58 30h1v1H58zM91 34h1v1H91z"/><path fill="#4685c2" d="M59 30h1v1H59z"/><path fill="#f6f8f9" d="M66 30h1v1H66zM25 32h1v1H25zM2 41h1v1H2z"/><path fill="#1868b5" d="M67 30h1v1H67z"/><path fill="#001e9c" d="M68 30h1v1H68z"/><path fill="#0039a7" d="M72 30h1v1H72zM175 33h1v1H175z"/><path fill="#0038a6" d="M73 30h1v1H73zM116 36h1v1H116z"/><path fill="#00239f" d="M74 30h1v1H74z"/><path fill="#0055ac" d="M75 30h1v1H75z"/><path fill="#ecf1f6" d="M76 30h1v1H76zM148 38h1v1H148z"/><path fill="#f3f5f7" d="M147 30h1v1H147zM130 38h1v1H130z"/><path fill="#075eb1" d="M148 30h1v1H148z"/><path fill="#00229d" d="M149 30h1v1H149z"/><path fill="#79a4d1" d="M150 30h1v1H150z"/><path fill="#508ec6" d="M159 30h1v1H159z"/><path fill="#001c99" d="M160 30h1v1H160z"/><path fill="#2771b9" d="M161 30h1v1H161z"/><path fill="#f9f9fb" d="M162 30h1v1H162z"/><path fill="#fdfcfb" d="M2 31h1v1H2zM128 38h1v1H128zM74 41h1v1H74z"/><path fill="#2471bb" d="M3 31h1v1H3z"/><path fill="#045db8" d="M4 31h1v1H4z"/><path fill="#196fbf" d="M14 31h1v1H14z"/><path fill="#004bac" d="M15 31h1v1H15zM124 34h1v1H124zM161 38h1v1H161z"/><path fill="#9cbedb" d="M16 31h1v1H16z"/><path fill="#aec7e1" d="M18 31h1v1H18z"/><path fill="#0044a8" d="M19 31h1v1H19zM103 40h1v1H103z"/><path fill="#2472bc" d="M24 31h1v1H24z"/><path fill="#2976bd" d="M25 31h1v1H25z"/><path fill="#0d64b6" d="M26 31h1v1H26z"/><path fill="#1f72c0" d="M28 31h1v1H28z"/><path fill="#045fb9" d="M29 31h1v1H29z"/><path fill="#0052ab" d="M30 31h1v1H30z"/><path fill="#d6e1eb" d="M31 31h1v1H31z"/><path fill="#c8d8e9" d="M36 31h1v1H36z"/><path fill="#0049af" d="M38 31h1v1H38zM76 34h1v1H76zM31 36h1v1H31z"/><path fill="#a2bfdd" d="M39 31h1v1H39z"/><path fill="#548ec8" d="M41 31h1v1H41z"/><path fill="#004eb3" d="M42 31h1v1H42z"/><path fill="#0059b0" d="M43 31h1v1H43z"/><path fill="#d8e3ef" d="M44 31h1v1H44z"/><path fill="#ebf1f5" d="M46 31h1v1H46z"/><path fill="#025db8" d="M48 31h1v1H48z"/><path fill="#1e71c0" d="M49 31h1v1H49z"/><path fill="#2672ba" d="M51 31h1v1H51z"/><path fill="#8cb1d7" d="M52 31h1v1H52z"/><path fill="#c5d7e8" d="M53 31h1v1H53z"/><path fill="#c5d8e9" d="M54 31h1v1H54z"/><path fill="#7ba7d0" d="M55 31h1v1H55z"/><path fill="#035ab2" d="M56 31h1v1H56z"/><path fill="#005bb8" d="M57 31h1v1H57z"/><path fill="#e9eff2" d="M66 31h1v1H66z"/><path fill="#71a0cc" d="M67 31h1v1H67z"/><path fill="#83aed7" d="M68 31h1v1H68z"/><path fill="#5d95ca" d="M69 31h1v1H69z"/><path fill="#0d5cb7" d="M70 31h1v1H70z"/><path fill="#0e64b7" d="M71 31h1v1H71z"/><path fill="#7aa6d1" d="M72 31h1v1H72z"/><path fill="#84add5" d="M73 31h1v1H73z"/><path fill="#729ccd" d="M74 31h1v1H74z"/><path fill="#d3e0ed" d="M75 31h1v1H75z"/><path fill="#83abd2" d="M147 31h1v1H147z"/><path fill="#003ca9" d="M148 31h1v1H148zM89 37h1v1H89z"/><path fill="#377fc0" d="M149 31h1v1H149z"/><path fill="#dde7f0" d="M158 31h1v1H158zM38 39h1v1H38zM82 41h1v1H82zM172 41h1v1H172z"/><path fill="#0157b2" d="M159 31h1v1H159z"/><path fill="#d4dfed" d="M161 31h1v1H161zM72 41h1v1H72z"/><path fill="#acc6e1" d="M2 32h1v1H2z"/><path fill="#045db7" d="M14 32h1v1H14z"/><path fill="#2b74bb" d="M15 32h1v1H15z"/><path fill="#fcfdfd" d="M17 32h1v1H17z"/><path fill="#015cb6" d="M19 32h1v1H19z"/><path fill="#1c6fbf" d="M20 32h1v1H20z"/><path fill="#4b87c1" d="M22 32h1v1H22zM91 40h1v1H91z"/><path fill="#bcd1e5" d="M23 32h1v1H23zM92 32h1v1H92z"/><path fill="#eff3f7" d="M24 32h1v1H24z"/><path fill="#d1dfec" d="M26 32h1v1H26z"/><path fill="#4885c2" d="M27 32h1v1H27z"/><path fill="#0048ae" d="M28 32h1v1H28z"/><path fill="#003dab" d="M30 32h1v1H30zM121 39h1v1H121z"/><path fill="#1767b6" d="M31 32h1v1H31z"/><path fill="#f4f7f9" d="M32 32h1v1H32z"/><path fill="#adc7e2" d="M36 32h1v1H36z"/><path fill="#0053af" d="M37 32h1v1H37z"/><path fill="#0b61b9" d="M38 32h1v1H38z"/><path fill="#5b94cb" d="M39 32h1v1H39z"/><path fill="#71a1ce" d="M40 32h1v1H40z"/><path fill="#0044aa" d="M42 32h1v1H42zM112 37h1v1H112zM73 39h1v1H73z"/><path fill="#7ea9d1" d="M43 32h1v1H43z"/><path fill="#8db3d8" d="M46 32h1v1H46z"/><path fill="#1e71bf" d="M48 32h1v1H48zM27 41h1v1H27z"/><path fill="#0057b3" d="M49 32h1v1H49z"/><path fill="#508ac3" d="M50 32h1v1H50z"/><path fill="#f4f6f7" d="M51 32h1v1H51zM125 41h1v1H125z"/><path fill="#bdd0e3" d="M56 32h1v1H56z"/><path fill="#1b67b4" d="M57 32h1v1H57z"/><path fill="#2472bb" d="M58 32h1v1H58z"/><path fill="#1264b7" d="M59 32h1v1H59z"/><path fill="#3c7ebd" d="M60 32h1v1H60z"/><path fill="#fcfcfa" d="M61 32h1v1H61z"/><path fill="#6b9ecc" d="M69 32h1v1H69z"/><path fill="#0037a6" d="M70 32h1v1H70zM114 40h1v1H114z"/><path fill="#5e95c9" d="M71 32h1v1H71zM36 37h1v1H36z"/><path fill="#75a4ce" d="M76 32h1v1H76z"/><path fill="#6192c7" d="M77 32h1v1H77z"/><path fill="#bbcedf" d="M78 32h1v1H78z"/><path fill="#a1c0de" d="M79 32h1v1H79z"/><path fill="#679acb" d="M80 32h1v1H80z"/><path fill="#578cc6" d="M81 32h1v1H81z"/><path fill="#8eb2d5" d="M82 32h1v1H82zM56 38h1v1H56z"/><path fill="#b6cde4" d="M84 32h1v1H84z"/><path fill="#598dc6" d="M85 32h1v1H85z"/><path fill="#6ea0ce" d="M86 32h4v1H86zM111 32h2v1H111zM119 32h4v1H119zM133 32h1v1H133zM145 32h1v1H145z"/><path fill="#6b9dcd" d="M90 32h1v1H90zM123 32h1v1H123z"/><path fill="#78a6cf" d="M95 32h1v1H95z"/><path fill="#5f90c6" d="M96 32h1v1H96z"/><path fill="#b4c7dd" d="M97 32h1v1H97z"/><path fill="#a3c1de" d="M98 32h1v1H98zM168 40h1v1H168z"/><path fill="#6499cb" d="M99 32h1v1H99z"/><path fill="#6d9fce" d="M100 32h1v1H100zM108 32h1v1H108zM144 32h1v1H144z"/><path fill="#6c9ecd" d="M101 32h1v1H101zM34 36h1v1H34z"/><path fill="#699bcc" d="M102 32h1v1H102z"/><path fill="#9abcda" d="M103 32h1v1H103z"/><path fill="#f7f9fa" d="M104 32h1v1H104zM18 41h1v1H18z"/><path fill="#f6f7f8" d="M106 32h1v1H106zM144 41h1v1H144z"/><path fill="#8fb1d5" d="M107 32h1v1H107z"/><path fill="#6b9ece" d="M109 32h1v1H109z"/><path fill="#6e9fce" d="M110 32h1v1H110zM132 32h1v1H132zM168 32h1v1H168zM178 32h1v1H178z"/><path fill="#70a1cf" d="M113 32h1v1H113z"/><path fill="#5d91c8" d="M114 32h1v1H114z"/><path fill="#8bb1d5" d="M115 32h1v1H115z"/><path fill="#7eaad1" d="M117 32h1v1H117z"/><path fill="#6d9ccb" d="M124 32h1v1H124z"/><path fill="#bdd1e5" d="M125 32h1v1H125z"/><path fill="#d0dfeb" d="M128 32h1v1H128z"/><path fill="#7ca7d1" d="M129 32h1v1H129z"/><path fill="#6b9dce" d="M130 32h1v1H130zM89 34h1v1H89z"/><path fill="#6c9ece" d="M131 32h1v1H131z"/><path fill="#6a9bcc" d="M135 32h1v1H135zM27 39h1v1H27z"/><path fill="#acc6df" d="M136 32h1v1H136z"/><path fill="#eff3f6" d="M138 32h1v1H138z"/><path fill="#6595c7" d="M139 32h1v1H139z"/><path fill="#6b9bcb" d="M140 32h1v1H140z"/><path fill="#bdcedf" d="M141 32h1v1H141z"/><path fill="#8fb5d8" d="M142 32h1v1H142z"/><path fill="#659acc" d="M143 32h1v1H143z"/><path fill="#6f9fcd" d="M146 32h1v1H146z"/><path fill="#1a6cb9" d="M147 32h1v1H147zM176 39h1v1H176z"/><path fill="#0e5cb9" d="M148 32h1v1H148z"/><path fill="#4385c2" d="M149 32h1v1H149z"/><path fill="#6696ca" d="M150 32h1v1H150z"/><path fill="#83abd1" d="M151 32h1v1H151zM178 39h1v1H178z"/><path fill="#5f98ca" d="M158 32h1v1H158zM94 38h1v1H94z"/><path fill="#0037a7" d="M159 32h1v1H159zM68 36h1v1H68zM133 38h1v1H133z"/><path fill="#4889c6" d="M160 32h1v1H160z"/><path fill="#d5e2ee" d="M162 32h1v1H162z"/><path fill="#5c89c3" d="M163 32h1v1H163z"/><path fill="#84aacf" d="M164 32h1v1H164z"/><path fill="#c5d5e3" d="M165 32h1v1H165z"/><path fill="#79a8d3" d="M166 32h1v1H166z"/><path fill="#689bcc" d="M167 32h1v1H167z"/><path fill="#6a9dcd" d="M169 32h1v1H169z"/><path fill="#709ecd" d="M170 32h1v1H170z"/><path fill="#c8d8e8" d="M171 32h1v1H171z"/><path fill="#c8d8e6" d="M174 32h1v1H174z"/><path fill="#79a4d2" d="M175 32h1v1H175z"/><path fill="#6b9dcf" d="M176 32h1v1H176z"/><path fill="#6d9ece" d="M177 32h1v1H177zM50 42h1v1H50z"/><path fill="#6fa0cf" d="M179 32h1v1H179z"/><path fill="#6195cc" d="M180 32h1v1H180z"/><path fill="rgb(120 164 207)" fill-opacity="0.9490" d="M181 32h1v1H181z"/><path fill="#3f82c2" d="M2 33h1v1H2z"/><path fill="#1b6dbe" d="M13 33h1v1H13z"/><path fill="#9bbcd9" d="M15 33h1v1H15z"/><path fill="#a7c3e0" d="M17 33h1v1H17zM61 36h1v1H61z"/><path fill="#0056b2" d="M20 33h1v1H20zM36 41h1v1H36zM53 42h1v1H53z"/><path fill="#4c89c3" d="M21 33h1v1H21z"/><path fill="#6e9ece" d="M28 33h1v1H28z"/><path fill="#5a95cc" d="M29 33h1v1H29z"/><path fill="#639cd1" d="M30 33h1v1H30z"/><path fill="#4f8bc6" d="M31 33h1v1H31z"/><path fill="#e3eaf1" d="M32 33h1v1H32z"/><path fill="#206db9" d="M37 33h1v1H37z"/><path fill="#0c67bb" d="M38 33h1v1H38z"/><path fill="#0962b8" d="M39 33h1v1H39z"/><path fill="#004fb1" d="M40 33h1v1H40zM22 42h1v1H22z"/><path fill="#72a0cf" d="M42 33h1v1H42z"/><path fill="#4786c3" d="M46 33h1v1H46z"/><path fill="#0057b5" d="M47 33h1v1H47z"/><path fill="#0b64ba" d="M48 33h1v1H48z"/><path fill="#1867b6" d="M49 33h1v1H49z"/><path fill="#fcfbf9" d="M50 33h1v1H50z"/><path fill="#fffdf8" d="M57 33h1v1H57zM109 38h1v1H109z"/><path fill="#f8f7f6" d="M58 33h1v1H58z"/><path fill="#fcfbf8" d="M59 33h1v1H59z"/><path fill="#f3f4f3" d="M60 33h1v1H60z"/><path fill="#cddbeb" d="M68 33h1v1H68z"/><path fill="#0054b1" d="M70 33h1v1H70zM56 39h1v1H56z"/><path fill="#d8e3ee" d="M71 33h1v1H71zM146 41h1v1H146z"/><path fill="#a9c4df" d="M75 33h1v1H75z"/><path fill="#0040a7" d="M76 33h1v1H76zM125 39h1v1H125z"/><path fill="#0046ad" d="M77 33h1v1H77z"/><path fill="#004ca7" d="M78 33h1v1H78z"/><path fill="#003ca4" d="M79 33h1v1H79z"/><path fill="#0033a3" d="M80 33h1v1H80zM105 36h1v1H105z"/><path fill="#00279a" d="M81 33h1v1H81z"/><path fill="#adc8e3" d="M82 33h1v1H82z"/><path fill="#eaf0f6" d="M83 33h1v1H83z"/><path fill="#0046a5" d="M84 33h1v1H84z"/><path fill="#002aa0" d="M85 33h1v1H85z"/><path fill="#003aa5" d="M86 33h3v1H86zM109 33h4v1H109zM119 33h3v1H119zM131 33h2v1H131zM144 33h1v1H144zM167 33h1v1H167zM177 33h2v1H177zM106 34h1v1H106z"/><path fill="#0044ab" d="M89 33h1v1H89zM122 33h1v1H122z"/><path fill="#0037a5" d="M91 33h1v1H91zM100 38h1v1H100z"/><path fill="#397dbe" d="M92 33h1v1H92z"/><path fill="#b0c9e0" d="M94 33h1v1H94z"/><path fill="#0041a6" d="M95 33h1v1H95zM136 40h1v1H136z"/><path fill="#0045ad" d="M96 33h1v1H96zM128 34h1v1H128zM172 38h1v1H172z"/><path fill="#0049a6" d="M97 33h1v1H97z"/><path fill="#003da4" d="M98 33h1v1H98zM155 40h1v1H155z"/><path fill="#0038a4" d="M99 33h1v1H99zM108 33h1v1H108zM179 33h1v1H179z"/><path fill="#003ca7" d="M100 33h1v1H100zM122 38h1v1H122z"/><path fill="#004daa" d="M103 33h1v1H103zM117 40h1v1H117z"/><path fill="#f1f5f8" d="M104 33h1v1H104z"/><path fill="#3279bb" d="M106 33h1v1H106z"/><path fill="#0037a4" d="M113 33h1v1H113z"/><path fill="#002199" d="M114 33h1v1H114z"/><path fill="#aac6e1" d="M115 33h1v1H115z"/><path fill="#e5ebf0" d="M116 33h1v1H116z"/><path fill="#0045a8" d="M117 33h1v1H117z"/><path fill="#0043ab" d="M118 33h1v1H118zM35 36h1v1H35z"/><path fill="#0036a5" d="M124 33h1v1H124zM158 34h1v1H158z"/><path fill="#387cbf" d="M125 33h1v1H125z"/><path fill="#bdd2e5" d="M127 33h1v1H127z"/><path fill="#0052ad" d="M128 33h1v1H128zM69 35h1v1H69z"/><path fill="#0039a4" d="M130 33h1v1H130zM73 40h1v1H73z"/><path fill="#0040a9" d="M133 33h1v1H133zM137 38h1v1H137zM168 38h1v1H168zM12 39h1v1H12z"/><path fill="#0040aa" d="M135 33h1v1H135zM123 35h1v1H123zM123 36h1v1H123z"/><path fill="#1465b2" d="M136 33h1v1H136z"/><path fill="#85aed7" d="M138 33h1v1H138z"/><path fill="#0039a8" d="M139 33h1v1H139zM157 36h1v1H157zM67 38h1v1H67z"/><path fill="#0046ac" d="M140 33h1v1H140zM168 33h1v1H168zM157 37h1v1H157z"/><path fill="#004aa4" d="M141 33h1v1H141z"/><path fill="#0038a3" d="M142 33h1v1H142z"/><path fill="#0039a5" d="M143 33h1v1H143zM176 33h1v1H176z"/><path fill="#0040a8" d="M145 33h1v1H145zM171 39h1v1H171z"/><path fill="#146cbe" d="M147 33h1v1H147z"/><path fill="#0362b7" d="M148 33h1v1H148z"/><path fill="#0048ad" d="M149 33h1v1H149zM20 41h1v1H20z"/><path fill="#002299" d="M150 33h1v1H150z"/><path fill="#84acd4" d="M151 33h1v1H151z"/><path fill="#dae4ef" d="M157 33h1v1H157z"/><path fill="#0158b1" d="M158 33h1v1H158z"/><path fill="#004cad" d="M159 33h1v1H159zM39 37h1v1H39zM39 40h1v1H39z"/><path fill="#c8d7e9" d="M160 33h1v1H160z"/><path fill="#4b8cc3" d="M162 33h1v1H162z"/><path fill="#0038a8" d="M163 33h1v1H163zM136 39h1v1H136z"/><path fill="#004aaa" d="M164 33h1v1H164z"/><path fill="#004aa5" d="M165 33h1v1H165z"/><path fill="#0033a2" d="M170 33h1v1H170z"/><path fill="#5890c6" d="M171 33h1v1H171z"/><path fill="#abc6df" d="M173 33h1v1H173z"/><path fill="#004eab" d="M174 33h1v1H174z"/><path fill="#002098" d="M180 33h1v1H180z"/><path fill="rgb(107 157 205)" fill-opacity="0.9490" d="M181 33h1v1H181z"/><path fill="#bed2e4" d="M1 34h1v1H1z"/><path fill="#0050ac" d="M2 34h1v1H2z"/><path fill="#166dbe" d="M3 34h1v1H3z"/><path fill="#0965bb" d="M13 34h1v1H13z"/><path fill="#1869b8" d="M14 34h1v1H14z"/><path fill="#f7f8f9" d="M15 34h1v1H15zM3 41h1v1H3z"/><path fill="#5f95ca" d="M17 34h1v1H17z"/><path fill="#0f67bc" d="M19 34h1v1H19z"/><path fill="#1263b4" d="M20 34h1v1H20z"/><path fill="#eff2f5" d="M21 34h1v1H21z"/><path fill="#ecf1f4" d="M23 34h1v1H23z"/><path fill="#e5ebf1" d="M24 34h1v1H24z"/><path fill="#e7eef2" d="M25 34h2v1H25z"/><path fill="#f4f7f7" d="M27 34h1v1H27z"/><path fill="#fffff8" d="M28 34h1v1H28z"/><path fill="#fbf9f5" d="M29 34h1v1H29z"/><path fill="#fefbf6" d="M30 34h1v1H30z"/><path fill="#f6f5f2" d="M31 34h1v1H31z"/><path fill="#f2f5f8" d="M32 34h1v1H32zM165 41h1v1H165z"/><path fill="#a0bedb" d="M36 34h1v1H36z"/><path fill="#1a69b9" d="M37 34h1v1H37z"/><path fill="#206db8" d="M40 34h1v1H40z"/><path fill="#c6d6e7" d="M41 34h1v1H41z"/><path fill="#eaeff3" d="M45 34h1v1H45zM156 35h1v1H156z"/><path fill="#2d77be" d="M46 34h1v1H46z"/><path fill="#0562b9" d="M47 34h1v1H47z"/><path fill="#689cce" d="M49 34h1v1H49z"/><path fill="#eef1f5" d="M51 34h1v1H51z"/><path fill="#4b88c4" d="M52 34h1v1H52z"/><path fill="#3e82c6" d="M53 34h1v1H53z"/><path fill="#4989c8" d="M54 34h2v1H54z"/><path fill="#4a8ac9" d="M56 34h1v1H56z"/><path fill="#5c96d0" d="M57 34h1v1H57z"/><path fill="#5e97d1" d="M58 34h1v1H58z"/><path fill="#5d97d0" d="M59 34h1v1H59z"/><path fill="#4683c5" d="M60 34h1v1H60z"/><path fill="#b2cce5" d="M61 34h1v1H61z"/><path fill="#4a8bc5" d="M68 34h1v1H68z"/><path fill="#0038a7" d="M69 34h1v1H69zM93 38h1v1H93z"/><path fill="#fffefd" d="M74 34h1v1H74z"/><path fill="#2a78be" d="M75 34h1v1H75z"/><path fill="#337abd" d="M77 34h1v1H77zM144 38h1v1H144z"/><path fill="#82aed8" d="M78 34h1v1H78zM97 34h1v1H97z"/><path fill="#93b7db" d="M79 34h1v1H79z"/><path fill="#88b1d9" d="M80 34h1v1H80z"/><path fill="#a2c2dd" d="M81 34h1v1H81z"/><path fill="#f5f6f9" d="M83 34h1v1H83z"/><path fill="#a0bfdd" d="M84 34h1v1H84z"/><path fill="#bad3e8" d="M85 34h1v1H85z"/><path fill="#bad1e7" d="M86 34h1v1H86z"/><path fill="#bbd2e8" d="M87 34h1v1H87z"/><path fill="#99bcdd" d="M88 34h1v1H88z"/><path fill="#0c64b7" d="M90 34h1v1H90z"/><path fill="#a3c2e1" d="M92 34h1v1H92z"/><path fill="#3581c0" d="M94 34h1v1H94z"/><path fill="#3379be" d="M96 34h1v1H96z"/><path fill="#92b7db" d="M98 34h1v1H98z"/><path fill="#96b9db" d="M99 34h1v1H99z"/><path fill="#93b8db" d="M100 34h1v1H100z"/><path fill="#2273bf" d="M101 34h1v1H101z"/><path fill="#004cb1" d="M102 34h1v1H102z"/><path fill="#538dc8" d="M103 34h1v1H103z"/><path fill="#77a6d0" d="M105 34h1v1H105z"/><path fill="#488ac7" d="M107 34h1v1H107z"/><path fill="#b1cbe4" d="M108 34h1v1H108z"/><path fill="#bad0e6" d="M109 34h1v1H109z"/><path fill="#b9d0e7" d="M110 34h1v1H110z"/><path fill="#bbd1e7" d="M111 34h1v1H111z"/><path fill="#b7d0e8" d="M112 34h1v1H112z"/><path fill="#94b9dd" d="M113 34h1v1H113z"/><path fill="#95b9db" d="M114 34h1v1H114zM119 34h1v1H119z"/><path fill="#498cc7" d="M116 34h1v1H116z"/><path fill="#4887c5" d="M118 34h1v1H118z"/><path fill="#94b8dc" d="M120 34h1v1H120zM178 34h1v1H178z"/><path fill="#94b8db" d="M121 34h1v1H121zM144 34h1v1H144z"/><path fill="#70a1d0" d="M122 34h1v1H122z"/><path fill="#a6c3e1" d="M125 34h1v1H125z"/><path fill="#1b6db7" d="M127 34h1v1H127z"/><path fill="#92b6d9" d="M130 34h1v1H130z"/><path fill="#95b9dc" d="M131 34h1v1H131zM142 34h1v1H142zM177 34h1v1H177z"/><path fill="#95b8da" d="M132 34h1v1H132z"/><path fill="#126aba" d="M134 34h1v1H134z"/><path fill="#004baf" d="M135 34h1v1H135z"/><path fill="#90b6db" d="M136 34h1v1H136z"/><path fill="#1769b9" d="M138 34h1v1H138z"/><path fill="#0051b3" d="M139 34h1v1H139z"/><path fill="#4b88c5" d="M140 34h1v1H140z"/><path fill="#86b0da" d="M141 34h1v1H141z"/><path fill="#94b9db" d="M143 34h1v1H143zM167 34h1v1H167z"/><path fill="#94b7d8" d="M145 34h1v1H145zM139 36h1v1H139z"/><path fill="#196ebb" d="M146 34h1v1H146z"/><path fill="#5b91c7" d="M148 34h1v1H148z"/><path fill="#8eb3d8" d="M149 34h1v1H149z"/><path fill="#99bbda" d="M150 34h1v1H150z"/><path fill="#6a9ecf" d="M157 34h1v1H157z"/><path fill="#4186c1" d="M159 34h1v1H159z"/><path fill="#d4e1ec" d="M161 34h1v1H161z"/><path fill="#0053ae" d="M162 34h1v1H162zM113 41h1v1H113z"/><path fill="#005ab4" d="M163 34h1v1H163z"/><path fill="#5e96cb" d="M164 34h1v1H164z"/><path fill="#88b1da" d="M165 34h1v1H165z"/><path fill="#97badc" d="M166 34h1v1H166z"/><path fill="#6699cd" d="M168 34h1v1H168z"/><path fill="#0c5fb8" d="M169 34h1v1H169z"/><path fill="#c6d8eb" d="M171 34h1v1H171z"/><path fill="#0b61b4" d="M173 34h1v1H173zM131 40h1v1H131z"/><path fill="#004ab0" d="M174 34h1v1H174z"/><path fill="#5791c8" d="M175 34h1v1H175z"/><path fill="#92b7da" d="M176 34h1v1H176z"/><path fill="#8eb5d9" d="M179 34h1v1H179z"/><path fill="#92b6d8" d="M180 34h1v1H180z"/><path fill="rgb(253 253 253)" fill-opacity="0.9490" d="M181 34h1v1H181z"/><path fill="#4989c4" d="M1 35h1v1H1z"/><path fill="#508cc9" d="M14 35h1v1H14z"/><path fill="#4284c3" d="M17 35h1v1H17z"/><path fill="#005bb5" d="M18 35h1v1H18z"/><path fill="#4c8cc8" d="M20 35h1v1H20z"/><path fill="#4887c1" d="M23 35h1v1H23z"/><path fill="#045cb1" d="M24 35h1v1H24z"/><path fill="#1c6eb8" d="M25 35h3v1H25z"/><path fill="#2171bb" d="M28 35h1v1H28z"/><path fill="#2372bb" d="M29 35h1v1H29zM168 39h1v1H168z"/><path fill="#2272bb" d="M30 35h1v1H30z"/><path fill="#0959b0" d="M31 35h1v1H31z"/><path fill="#75a3cf" d="M32 35h1v1H32z"/><path fill="#6799c9" d="M35 35h1v1H35z"/><path fill="#0049ab" d="M36 35h1v1H36zM158 35h1v1H158z"/><path fill="#1066b9" d="M38 35h1v1H38z"/><path fill="#196ab8" d="M40 35h1v1H40z"/><path fill="#9abbdc" d="M42 35h1v1H42z"/><path fill="#0042a8" d="M43 35h1v1H43zM84 36h1v1H84z"/><path fill="#337abf" d="M44 35h1v1H44z"/><path fill="#e0e7ed" d="M45 35h1v1H45z"/><path fill="#2c78c1" d="M46 35h1v1H46z"/><path fill="#0c65ba" d="M47 35h1v1H47z"/><path fill="#7aa8d4" d="M49 35h1v1H49z"/><path fill="#003daa" d="M53 35h1v1H53z"/><path fill="#005db6" d="M58 35h1v1H58z"/><path fill="#003ca6" d="M60 35h1v1H60z"/><path fill="#88afd7" d="M61 35h1v1H61z"/><path fill="#cfddec" d="M67 35h1v1H67z"/><path fill="#cedbe8" d="M70 35h1v1H70z"/><path fill="#b0cae2" d="M74 35h1v1H74z"/><path fill="#0046ab" d="M75 35h1v1H75z"/><path fill="#0b5db2" d="M76 35h1v1H76z"/><path fill="#e4eaef" d="M77 35h1v1H77z"/><path fill="#ebf1f4" d="M83 35h1v1H83z"/><path fill="#e5ebf4" d="M84 35h1v1H84z"/><path fill="#e0e8f3" d="M85 35h1v1H85z"/><path fill="#e2ebf4" d="M86 35h1v1H86z"/><path fill="#cadaec" d="M87 35h1v1H87z"/><path fill="#bdd2e6" d="M89 35h1v1H89z"/><path fill="#0042a9" d="M90 35h1v1H90zM29 41h1v1H29z"/><path fill="#1668b8" d="M91 35h1v1H91z"/><path fill="#d3e0ee" d="M93 35h1v1H93z"/><path fill="#085ab2" d="M95 35h1v1H95z"/><path fill="#e1e7ef" d="M96 35h1v1H96z"/><path fill="#fffffb" d="M100 35h1v1H100zM86 38h1v1H86zM108 38h1v1H108zM113 38h1v1H113z"/><path fill="#1261b4" d="M101 35h1v1H101z"/><path fill="#e4ebf3" d="M103 35h1v1H103z"/><path fill="#e9f0f7" d="M104 35h1v1H104z"/><path fill="#015ab1" d="M105 35h1v1H105z"/><path fill="#0552b2" d="M106 35h1v1H106z"/><path fill="#78a4d0" d="M107 35h1v1H107z"/><path fill="#e5ebf2" d="M108 35h1v1H108z"/><path fill="#e3edf4" d="M109 35h1v1H109z"/><path fill="#e4edf4" d="M110 35h1v1H110z"/><path fill="#dee9f2" d="M111 35h1v1H111z"/><path fill="#f0f5f6" d="M112 35h1v1H112z"/><path fill="#0356b0" d="M117 35h1v1H117z"/><path fill="#e1e9f0" d="M118 35h1v1H118z"/><path fill="#a8c4dd" d="M122 35h1v1H122z"/><path fill="#1b6bb7" d="M124 35h1v1H124z"/><path fill="#abc7e2" d="M126 35h1v1H126z"/><path fill="#003ea9" d="M127 35h1v1H127zM138 35h1v1H138zM127 36h1v1H127z"/><path fill="#1868b8" d="M128 35h1v1H128zM23 36h1v1H23z"/><path fill="#fdfbf9" d="M129 35h1v1H129zM110 41h1v1H110z"/><path fill="#dde6ee" d="M133 35h1v1H133z"/><path fill="#0459b4" d="M135 35h1v1H135z"/><path fill="#acc8e0" d="M137 35h1v1H137z"/><path fill="#206cb9" d="M139 35h1v1H139z"/><path fill="#fffffa" d="M140 35h1v1H140z"/><path fill="#c4d6e8" d="M145 35h1v1H145z"/><path fill="#0049ad" d="M146 35h1v1H146z"/><path fill="#0f60b4" d="M147 35h1v1H147z"/><path fill="#fdfbfa" d="M148 35h1v1H148zM8 41h1v1H8z"/><path fill="#0e61b4" d="M157 35h1v1H157z"/><path fill="#c7d9ea" d="M159 35h1v1H159z"/><path fill="#4d8cc5" d="M161 35h1v1H161z"/><path fill="#003aaa" d="M162 35h1v1H162z"/><path fill="#4584c0" d="M163 35h1v1H163z"/><path fill="#93b7d9" d="M168 35h1v1H168zM138 38h1v1H138z"/><path fill="#003ba9" d="M169 35h1v1H169z"/><path fill="#94bada" d="M172 35h1v1H172z"/><path fill="#2a72bb" d="M174 35h1v1H174z"/><path fill="#dae3ef" d="M0 36h1v1H0z"/><path fill="#0058b1" d="M1 36h1v1H1z"/><path fill="#116abd" d="M2 36h1v1H2z"/><path fill="#8fb4d6" d="M14 36h1v1H14z"/><path fill="#4d8dc7" d="M20 36h1v1H20z"/><path fill="#0032a5" d="M24 36h1v1H24z"/><path fill="#0049ae" d="M25 36h3v1H25z"/><path fill="#0056b5" d="M28 36h1v1H28z"/><path fill="#1069bd" d="M29 36h1v1H29z"/><path fill="#0c65bb" d="M30 36h1v1H30z"/><path fill="#6b9fcf" d="M32 36h1v1H32z"/><path fill="#0059b4" d="M36 36h1v1H36zM111 36h1v1H111zM38 40h1v1H38z"/><path fill="#88afd5" d="M37 36h1v1H37z"/><path fill="#4c89c6" d="M38 36h1v1H38z"/><path fill="#085fb8" d="M39 36h1v1H39z"/><path fill="#538cc4" d="M41 36h1v1H41z"/><path fill="#317ac2" d="M42 36h1v1H42z"/><path fill="#003aa9" d="M43 36h1v1H43z"/><path fill="#8cb3db" d="M44 36h1v1H44z"/><path fill="#2170bb" d="M46 36h1v1H46z"/><path fill="#0763ba" d="M47 36h1v1H47z"/><path fill="#4d8ac5" d="M49 36h1v1H49z"/><path fill="#f0f4f7" d="M51 36h1v1H51zM116 41h1v1H116z"/><path fill="#4988c2" d="M52 36h1v1H52z"/><path fill="#3d81c4" d="M53 36h1v1H53z"/><path fill="#4888c6" d="M54 36h2v1H54z"/><path fill="#3a7ec2" d="M57 36h1v1H57z"/><path fill="#1266ba" d="M58 36h1v1H58z"/><path fill="#5d96ca" d="M67 36h1v1H67z"/><path fill="#5190c8" d="M69 36h1v1H69z"/><path fill="#3d83c2" d="M74 36h1v1H74zM173 37h1v1H173z"/><path fill="#0037a9" d="M75 36h1v1H75z"/><path fill="#72a4d0" d="M76 36h1v1H76z"/><path fill="#93b9d9" d="M82 36h1v1H82z"/><path fill="#0358b1" d="M83 36h1v1H83z"/><path fill="#0043a9" d="M85 36h1v1H85z"/><path fill="#0033a4" d="M86 36h1v1H86z"/><path fill="#1665b5" d="M87 36h1v1H87z"/><path fill="#f5f4f1" d="M88 36h1v1H88z"/><path fill="#317fc2" d="M89 36h1v1H89z"/><path fill="#003faa" d="M90 36h1v1H90zM122 37h1v1H122z"/><path fill="#3c84c1" d="M93 36h1v1H93z"/><path fill="#0037a8" d="M94 36h1v1H94z"/><path fill="#6098cc" d="M95 36h1v1H95z"/><path fill="#699dce" d="M100 36h1v1H100z"/><path fill="#0039a6" d="M101 36h1v1H101zM134 36h1v1H134z"/><path fill="#4388c4" d="M102 36h1v1H102z"/><path fill="#98badd" d="M104 36h1v1H104zM171 37h1v1H171z"/><path fill="#0047aa" d="M108 36h1v1H108zM81 39h1v1H81z"/><path fill="#0047ac" d="M109 36h1v1H109zM92 39h1v1H92z"/><path fill="#004daf" d="M110 36h1v1H110z"/><path fill="#0046a7" d="M112 36h1v1H112z"/><path fill="#a3c2df" d="M113 36h1v1H113z"/><path fill="#3e86c3" d="M115 36h1v1H115z"/><path fill="#6299cb" d="M117 36h1v1H117z"/><path fill="#2071bb" d="M122 36h1v1H122z"/><path fill="#aec8e2" d="M124 36h1v1H124z"/><path fill="#196bb9" d="M126 36h1v1H126zM37 40h1v1H37z"/><path fill="#8eb5d7" d="M128 36h1v1H128z"/><path fill="#4086c3" d="M133 36h1v1H133z"/><path fill="#82add5" d="M135 36h1v1H135z"/><path fill="#1669b9" d="M137 36h1v1H137zM172 40h1v1H172z"/><path fill="#003fa9" d="M138 36h1v1H138z"/><path fill="#2977be" d="M145 36h1v1H145z"/><path fill="#003ca8" d="M146 36h1v1H146z"/><path fill="#72a2cf" d="M156 36h1v1H156z"/><path fill="#307cbf" d="M158 36h1v1H158z"/><path fill="#e3eaf2" d="M160 36h1v1H160z"/><path fill="#0051ae" d="M162 36h1v1H162z"/><path fill="#f2f4f6" d="M167 36h1v1H167z"/><path fill="#1066b7" d="M168 36h1v1H168z"/><path fill="#0045aa" d="M169 36h1v1H169z"/><path fill="#c8daea" d="M170 36h1v1H170z"/><path fill="#0c63b5" d="M172 36h1v1H172z"/><path fill="#0041aa" d="M173 36h1v1H173z"/><path fill="#a1bedb" d="M174 36h1v1H174z"/><path fill="#74a3d0" d="M0 37h1v1H0z"/><path fill="#116abc" d="M12 37h1v1H12z"/><path fill="#d8e3ed" d="M14 37h1v1H14z"/><path fill="#4a89c6" d="M17 37h1v1H17z"/><path fill="#1565b5" d="M20 37h1v1H20z"/><path fill="#f5f6f7" d="M21 37h1v1H21z"/><path fill="#a3c1e0" d="M23 37h1v1H23z"/><path fill="#7fabd8" d="M24 37h1v1H24z"/><path fill="#8db4db" d="M25 37h2v1H25z"/><path fill="#94badf" d="M27 37h1v1H27z"/><path fill="#70a2cf" d="M28 37h1v1H28zM99 38h1v1H99z"/><path fill="#0b5eb4" d="M29 37h1v1H29z"/><path fill="#b0cbe6" d="M32 37h1v1H32z"/><path fill="#e9eef3" d="M33 37h1v1H33z"/><path fill="#0054b3" d="M35 37h1v1H35z"/><path fill="#abc6e1" d="M38 37h1v1H38z"/><path fill="#0460b7" d="M41 37h1v1H41z"/><path fill="#004db0" d="M42 37h1v1H42z"/><path fill="#2974bb" d="M43 37h1v1H43z"/><path fill="#fdfdfb" d="M44 37h1v1H44z"/><path fill="#4283c1" d="M46 37h1v1H46z"/><path fill="#0058b6" d="M47 37h1v1H47zM41 39h1v1H41z"/><path fill="#126abc" d="M48 37h1v1H48z"/><path fill="#0159b1" d="M49 37h1v1H49z"/><path fill="#d5e1ec" d="M50 37h1v1H50z"/><path fill="#4e8ac3" d="M57 37h1v1H57z"/><path fill="#dce6ef" d="M61 37h1v1H61z"/><path fill="#d7e2ef" d="M66 37h1v1H66z"/><path fill="#0156b2" d="M67 37h1v1H67z"/><path fill="#004bae" d="M68 37h1v1H68z"/><path fill="#c5d6e8" d="M69 37h1v1H69z"/><path fill="#b8cde2" d="M73 37h1v1H73z"/><path fill="#004aac" d="M74 37h1v1H74zM93 37h1v1H93z"/><path fill="#0359b2" d="M75 37h1v1H75zM134 37h1v1H134z"/><path fill="#e0e8f1" d="M76 37h1v1H76zM83 41h1v1H83zM127 41h1v1H127z"/><path fill="#c6d8ea" d="M81 37h1v1H81z"/><path fill="#0046a9" d="M82 37h1v1H82zM59 39h1v1H59z"/><path fill="#025eb7" d="M83 37h1v1H83z"/><path fill="#5892cc" d="M84 37h1v1H84z"/><path fill="#6399cd" d="M85 37h1v1H85z"/><path fill="#4a83c2" d="M86 37h1v1H86z"/><path fill="#e5edf2" d="M87 37h1v1H87z"/><path fill="#bcd2e7" d="M88 37h1v1H88z"/><path fill="#1b6db9" d="M90 37h1v1H90z"/><path fill="#cedeec" d="M92 37h1v1H92z"/><path fill="#0158b2" d="M94 37h1v1H94z"/><path fill="#d9e3ef" d="M95 37h1v1H95z"/><path fill="#045ab2" d="M100 37h1v1H100z"/><path fill="#bdd1e3" d="M102 37h1v1H102z"/><path fill="#f4f6f9" d="M104 37h1v1H104z"/><path fill="#77a3d0" d="M105 37h1v1H105z"/><path fill="#548fca" d="M106 37h1v1H106z"/><path fill="#5994cc" d="M107 37h1v1H107z"/><path fill="#5893cd" d="M108 37h1v1H108z"/><path fill="#5a93cd" d="M109 37h1v1H109z"/><path fill="#4e8cc9" d="M110 37h1v1H110z"/><path fill="#1169bc" d="M111 37h1v1H111zM19 39h1v1H19z"/><path fill="#b7cfe6" d="M113 37h1v1H113z"/><path fill="#f2f3f7" d="M114 37h1v1H114z"/><path fill="#0257b2" d="M116 37h1v1H116z"/><path fill="#e9eef4" d="M117 37h1v1H117z"/><path fill="#9dbcdb" d="M121 37h1v1H121z"/><path fill="#186ab9" d="M123 37h1v1H123z"/><path fill="#b5cde5" d="M125 37h1v1H125z"/><path fill="#003da8" d="M126 37h1v1H126zM156 39h1v1H156z"/><path fill="#317abd" d="M127 37h1v1H127z"/><path fill="#c5d7e6" d="M132 37h1v1H132z"/><path fill="#0048ab" d="M133 37h1v1H133z"/><path fill="#a9c7e0" d="M136 37h1v1H136z"/><path fill="#003caa" d="M137 37h1v1H137z"/><path fill="#1f6eb9" d="M138 37h1v1H138z"/><path fill="#fbfaf8" d="M139 37h1v1H139z"/><path fill="#adc7df" d="M144 37h1v1H144z"/><path fill="#0044a9" d="M145 37h1v1H145z"/><path fill="#2572bc" d="M146 37h1v1H146z"/><path fill="#085fb5" d="M156 37h1v1H156z"/><path fill="#b9cee4" d="M158 37h1v1H158z"/><path fill="#5d96cb" d="M160 37h1v1H160z"/><path fill="#0038a9" d="M161 37h1v1H161z"/><path fill="#4c8cc7" d="M162 37h1v1H162z"/><path fill="#88b0d6" d="M167 37h1v1H167z"/><path fill="#003aa8" d="M168 37h1v1H168zM89 38h1v1H89z"/><path fill="#2f7cc0" d="M169 37h1v1H169z"/><path fill="#1769b7" d="M0 38h1v1H0z"/><path fill="#0863b9" d="M1 38h1v1H1z"/><path fill="#005bb6" d="M12 38h1v1H12z"/><path fill="#397fbf" d="M13 38h1v1H13z"/><path fill="#78a4d1" d="M17 38h1v1H17z"/><path fill="#1e70be" d="M19 38h1v1H19z"/><path fill="#0051b2" d="M20 38h1v1H20z"/><path fill="#6b9bca" d="M21 38h1v1H21z"/><path fill="#749fcd" d="M28 38h1v1H28z"/><path fill="#dbe4eb" d="M32 38h1v1H32z"/><path fill="#83add6" d="M33 38h1v1H33z"/><path fill="#bcd1e6" d="M36 38h1v1H36z"/><path fill="#387fc0" d="M39 38h1v1H39z"/><path fill="#035cb7" d="M40 38h1v1H40z"/><path fill="#0d64ba" d="M41 38h1v1H41z"/><path fill="#1c6ab7" d="M42 38h1v1H42z"/><path fill="#dae5ef" d="M43 38h1v1H43zM176 41h1v1H176z"/><path fill="#87afd5" d="M46 38h1v1H46z"/><path fill="#1f71bf" d="M48 38h1v1H48zM20 40h1v1H20z"/><path fill="#035cb6" d="M49 38h1v1H49z"/><path fill="#2770b9" d="M50 38h1v1H50z"/><path fill="#d8e2eb" d="M51 38h1v1H51z"/><path fill="#0059b3" d="M57 38h1v1H57z"/><path fill="#186dbe" d="M58 38h1v1H58zM58 39h1v1H58zM24 42h1v1H24z"/><path fill="#0055b4" d="M59 38h1v1H59z"/><path fill="#4083c2" d="M60 38h1v1H60z"/><path fill="#5c95cb" d="M66 38h1v1H66z"/><path fill="#3e85c1" d="M68 38h1v1H68zM101 38h1v1H101z"/><path fill="#3a82c0" d="M73 38h1v1H73z"/><path fill="#0039a9" d="M74 38h1v1H74z"/><path fill="#6299ca" d="M75 38h1v1H75z"/><path fill="#4887c4" d="M81 38h1v1H81z"/><path fill="#003eab" d="M82 38h1v1H82z"/><path fill="#5d95c7" d="M83 38h1v1H83z"/><path fill="#fffcf7" d="M84 38h1v1H84z"/><path fill="#fdfbf7" d="M87 38h1v1H87z"/><path fill="#2d77bf" d="M88 38h1v1H88z"/><path fill="#97bbdb" d="M90 38h1v1H90zM123 38h1v1H123z"/><path fill="#498bc6" d="M92 38h1v1H92z"/><path fill="#fcfcfb" d="M104 38h1v1H104z"/><path fill="#fffdf9" d="M106 38h1v1H106z"/><path fill="#fffefa" d="M107 38h1v1H107z"/><path fill="#aac4db" d="M110 38h1v1H110z"/><path fill="#1366b8" d="M112 38h1v1H112z"/><path fill="#649dce" d="M114 38h1v1H114z"/><path fill="#0035a6" d="M115 38h1v1H115z"/><path fill="#5f99ce" d="M116 38h1v1H116z"/><path fill="#eef2f6" d="M118 38h1v1H118zM165 40h1v1H165z"/><path fill="#f2f5f6" d="M119 38h1v1H119z"/><path fill="#d2dfec" d="M120 38h1v1H120z"/><path fill="#1f6ebb" d="M121 38h1v1H121z"/><path fill="#2c77bc" d="M125 38h1v1H125z"/><path fill="#0043ad" d="M126 38h1v1H126zM145 38h1v1H145zM132 39h1v1H132z"/><path fill="#72a3d0" d="M127 38h1v1H127z"/><path fill="#f4f6f8" d="M129 38h1v1H129z"/><path fill="#4182c1" d="M132 38h1v1H132z"/><path fill="#7eacd5" d="M134 38h1v1H134z"/><path fill="#1e70ba" d="M136 38h1v1H136z"/><path fill="#5c95c9" d="M146 38h1v1H146z"/><path fill="#faf9fa" d="M147 38h1v1H147z"/><path fill="#81acd5" d="M155 38h1v1H155z"/><path fill="#327dbe" d="M157 38h1v1H157z"/><path fill="#e1eaf2" d="M159 38h1v1H159z"/><path fill="#bdd1e4" d="M162 38h1v1H162z"/><path fill="#f5f7f8" d="M166 38h1v1H166z"/><path fill="#1669b8" d="M167 38h1v1H167z"/><path fill="#b6cfe6" d="M169 38h1v1H169z"/><path fill="#1d6db9" d="M171 38h1v1H171z"/><path fill="#fbfbfb" d="M174 38h1v1H174z"/><path fill="#f3f6f8" d="M175 38h2v1H175z"/><path fill="#eaf0f5" d="M178 38h1v1H178z"/><path fill="#0041a7" d="M0 39h1v1H0z"/><path fill="#0863ba" d="M1 39h1v1H1z"/><path fill="#0561b9" d="M5 39h1v1H5zM23 41h1v1H23z"/><path fill="#0460b9" d="M7 39h2v1H7z"/><path fill="#035fb8" d="M9 39h1v1H9z"/><path fill="#025fb8" d="M10 39h1v1H10z"/><path fill="#87b0d6" d="M13 39h1v1H13z"/><path fill="#d4e0ed" d="M17 39h1v1H17z"/><path fill="#0055b0" d="M21 39h1v1H21z"/><path fill="#7da6d0" d="M22 39h1v1H22z"/><path fill="#f6f6f7" d="M23 39h1v1H23z"/><path fill="#f3f4f6" d="M26 39h1v1H26z"/><path fill="#005ab7" d="M30 39h1v1H30z"/><path fill="#2b77bd" d="M31 39h1v1H31z"/><path fill="#fdfcf7" d="M32 39h1v1H32z"/><path fill="#3d82c4" d="M33 39h1v1H33z"/><path fill="#005bb7" d="M34 39h1v1H34z"/><path fill="#065db6" d="M35 39h1v1H35z"/><path fill="#e6ecf2" d="M37 39h1v1H37zM131 41h1v1H131z"/><path fill="#387ec2" d="M39 39h1v1H39z"/><path fill="#055eb8" d="M40 39h1v1H40z"/><path fill="#508fc6" d="M42 39h1v1H42z"/><path fill="#eaeff4" d="M46 39h1v1H46z"/><path fill="#005cb7" d="M48 39h1v1H48zM55 40h1v1H55z"/><path fill="#2174c1" d="M49 39h1v1H49z"/><path fill="#1164b5" d="M51 39h1v1H51z"/><path fill="#6ea0cf" d="M52 39h1v1H52z"/><path fill="#98bada" d="M53 39h1v1H53z"/><path fill="#8db2d7" d="M54 39h1v1H54z"/><path fill="#4384c2" d="M55 39h1v1H55z"/><path fill="#166abd" d="M57 39h1v1H57z"/><path fill="#adc7e0" d="M60 39h1v1H60z"/><path fill="#d6e2ef" d="M65 39h1v1H65z"/><path fill="#c0d3e6" d="M68 39h1v1H68z"/><path fill="#b8d0e6" d="M72 39h1v1H72z"/><path fill="#0057b1" d="M74 39h1v1H74z"/><path fill="#dfe8ef" d="M75 39h1v1H75zM49 42h1v1H49z"/><path fill="#b7cee2" d="M80 39h1v1H80z"/><path fill="#0661ba" d="M82 39h1v1H82z"/><path fill="#1e6fbd" d="M83 39h1v1H83z"/><path fill="#2371bd" d="M84 39h1v1H84z"/><path fill="#1f6fbb" d="M85 39h1v1H85z"/><path fill="#1468b7" d="M87 39h1v1H87zM82 40h1v1H82z"/><path fill="#0052b4" d="M88 39h1v1H88z"/><path fill="#d5e2f1" d="M91 39h1v1H91z"/><path fill="#0051af" d="M93 39h1v1H93z"/><path fill="#d7e2ee" d="M94 39h1v1H94z"/><path fill="#0159b2" d="M99 39h1v1H99z"/><path fill="#0042ab" d="M100 39h1v1H100z"/><path fill="#d6e2f0" d="M101 39h1v1H101z"/><path fill="#1969b4" d="M103 39h1v1H103z"/><path fill="#0b62b6" d="M104 39h1v1H104z"/><path fill="#2171bc" d="M106 39h2v1H106zM109 39h1v1H109z"/><path fill="#2371bc" d="M108 39h1v1H108z"/><path fill="#003ea6" d="M111 39h1v1H111z"/><path fill="#075bb4" d="M115 39h1v1H115z"/><path fill="#cedce9" d="M116 39h1v1H116z"/><path fill="#5894ca" d="M117 39h1v1H117z"/><path fill="#035cb3" d="M118 39h1v1H118z"/><path fill="#1a6bb9" d="M119 39h1v1H119zM175 39h1v1H175z"/><path fill="#015cb5" d="M120 39h1v1H120zM118 40h1v1H118z"/><path fill="#1f6eb7" d="M122 39h1v1H122z"/><path fill="#aac6e2" d="M124 39h1v1H124z"/><path fill="#0b67bc" d="M126 39h1v1H126zM172 39h1v1H172z"/><path fill="#146abc" d="M127 39h1v1H127zM146 39h1v1H146z"/><path fill="#196ab9" d="M128 39h1v1H128z"/><path fill="#1b6bb9" d="M130 39h1v1H130z"/><path fill="#0b62b7" d="M131 39h1v1H131z"/><path fill="#015bb1" d="M133 39h1v1H133z"/><path fill="#adc9e4" d="M135 39h1v1H135z"/><path fill="#1066b6" d="M137 39h1v1H137z"/><path fill="#f7f7fa" d="M138 39h1v1H138z"/><path fill="#9fbedc" d="M143 39h1v1H143z"/><path fill="#0041a9" d="M144 39h1v1H144zM34 40h1v1H34z"/><path fill="#8bb0d4" d="M148 39h1v1H148z"/><path fill="#e8eff5" d="M154 39h1v1H154z"/><path fill="#065eb4" d="M155 39h1v1H155z"/><path fill="#b0c9e2" d="M157 39h1v1H157z"/><path fill="#518ec7" d="M159 39h1v1H159z"/><path fill="#0031a4" d="M160 39h1v1H160z"/><path fill="#3e84c0" d="M161 39h1v1H161z"/><path fill="#0034a6" d="M167 39h1v1H167z"/><path fill="#99bbdd" d="M170 39h1v1H170z"/><path fill="#156abb" d="M173 39h1v1H173z"/><path fill="#1a6ab9" d="M174 39h1v1H174z"/><path fill="#004fab" d="M177 39h1v1H177z"/><path fill="#1162b9" d="M0 40h1v1H0z"/><path fill="#2a75bf" d="M1 40h1v1H1z"/><path fill="#2975bd" d="M2 40h1v1H2z"/><path fill="#2b76bd" d="M3 40h1v1H3z"/><path fill="#2c76be" d="M4 40h1v1H4z"/><path fill="#2e77bd" d="M5 40h1v1H5z"/><path fill="#3078bd" d="M6 40h1v1H6z"/><path fill="#337abe" d="M8 40h1v1H8z"/><path fill="#357bbe" d="M9 40h1v1H9z"/><path fill="#377cc0" d="M10 40h1v1H10z"/><path fill="#307ac0" d="M11 40h1v1H11z"/><path fill="#2e76bb" d="M12 40h1v1H12z"/><path fill="#e0eaf3" d="M13 40h1v1H13z"/><path fill="#6599cb" d="M18 40h1v1H18z"/><path fill="#1469bd" d="M21 40h1v1H21z"/><path fill="#2e76bd" d="M23 40h1v1H23z"/><path fill="#6498cc" d="M24 40h1v1H24z"/><path fill="#6096cc" d="M25 40h1v1H25z"/><path fill="#2874bc" d="M26 40h1v1H26z"/><path fill="#186cbe" d="M28 40h1v1H28z"/><path fill="#0049ac" d="M30 40h1v1H30z"/><path fill="#acc7e1" d="M31 40h1v1H31z"/><path fill="#6298ca" d="M33 40h1v1H33z"/><path fill="#126bbf" d="M35 40h1v1H35z"/><path fill="#035eb7" d="M36 40h1v1H36z"/><path fill="#0861b6" d="M40 40h1v1H40z"/><path fill="#0562bb" d="M41 40h1v1H41z"/><path fill="#0052b0" d="M42 40h1v1H42zM54 40h1v1H54z"/><path fill="#c4d7e9" d="M43 40h1v1H43z"/><path fill="#b4cbe2" d="M47 40h1v1H47z"/><path fill="#015db8" d="M49 40h1v1H49z"/><path fill="#2172bf" d="M50 40h1v1H50z"/><path fill="#0e66bc" d="M51 40h1v1H51z"/><path fill="#166dbd" d="M57 40h1v1H57z"/><path fill="#6197c7" d="M59 40h1v1H59z"/><path fill="#6899ca" d="M65 40h1v1H65z"/><path fill="#003aa3" d="M66 40h1v1H66zM99 40h1v1H99z"/><path fill="#498ac4" d="M67 40h1v1H67z"/><path fill="#4884c0" d="M72 40h1v1H72z"/><path fill="#679dcb" d="M74 40h1v1H74z"/><path fill="#bacfe5" d="M80 40h1v1H80z"/><path fill="#1165b8" d="M83 40h1v1H83z"/><path fill="#065fb5" d="M84 40h1v1H84zM86 40h1v1H86zM104 40h1v1H104zM107 40h1v1H107zM174 40h2v1H174z"/><path fill="#075fb5" d="M85 40h1v1H85zM105 40h2v1H105zM128 40h1v1H128z"/><path fill="#0760b6" d="M87 40h1v1H87z"/><path fill="#0050ad" d="M88 40h1v1H88z"/><path fill="#8db4d8" d="M89 40h1v1H89z"/><path fill="#003ba4" d="M92 40h1v1H92z"/><path fill="#5892c8" d="M93 40h1v1H93z"/><path fill="#709ecb" d="M98 40h1v1H98z"/><path fill="#3f83c0" d="M100 40h1v1H100z"/><path fill="#91b4d6" d="M102 40h1v1H102zM39 41h1v1H39z"/><path fill="#045eb4" d="M108 40h1v1H108zM130 40h1v1H130z"/><path fill="#045db4" d="M109 40h1v1H109z"/><path fill="#609ace" d="M113 40h1v1H113z"/><path fill="#79a9d4" d="M115 40h1v1H115z"/><path fill="#ced8e4" d="M116 40h1v1H116z"/><path fill="#035eb5" d="M119 40h1v1H119z"/><path fill="#1064b5" d="M120 40h1v1H120z"/><path fill="#3f7ebe" d="M121 40h1v1H121z"/><path fill="#d7e3ee" d="M122 40h1v1H122zM98 41h1v1H98z"/><path fill="#9cbcdd" d="M124 40h1v1H124z"/><path fill="#115baf" d="M125 40h1v1H125z"/><path fill="#1569b7" d="M126 40h1v1H126z"/><path fill="#1265b7" d="M127 40h1v1H127z"/><path fill="#065eb5" d="M129 40h1v1H129z"/><path fill="#3477bc" d="M132 40h1v1H132z"/><path fill="#c3d8e9" d="M133 40h1v1H133z"/><path fill="#1e6ab4" d="M135 40h1v1H135z"/><path fill="#87afd3" d="M137 40h1v1H137z"/><path fill="#a6c3de" d="M143 40h1v1H143z"/><path fill="#125db0" d="M144 40h1v1H144z"/><path fill="#1569b9" d="M145 40h1v1H145z"/><path fill="#025bb3" d="M146 40h1v1H146z"/><path fill="#1062b3" d="M147 40h1v1H147z"/><path fill="#e3ebf4" d="M148 40h1v1H148z"/><path fill="#7aa5cf" d="M154 40h1v1H154z"/><path fill="#3079bb" d="M156 40h1v1H156z"/><path fill="#0558ae" d="M159 40h1v1H159z"/><path fill="#044fab" d="M160 40h1v1H160z"/><path fill="#bfd3e5" d="M161 40h1v1H161z"/><path fill="#1b69b5" d="M166 40h1v1H166z"/><path fill="#0043a7" d="M167 40h1v1H167z"/><path fill="#0f5ab0" d="M171 40h1v1H171z"/><path fill="#1165b7" d="M173 40h1v1H173z"/><path fill="#0057b2" d="M176 40h1v1H176zM35 41h1v1H35zM54 42h1v1H54z"/><path fill="#045ab0" d="M177 40h1v1H177z"/><path fill="#d8e4f1" d="M178 40h1v1H178z"/><path fill="#f5fafd" d="M0 41h1v1H0z"/><path fill="#f5f7fa" d="M1 41h1v1H1z"/><path fill="#f9f9f9" d="M5 41h1v1H5z"/><path fill="#fffcfa" d="M9 41h1v1H9z"/><path fill="#3678bd" d="M19 41h1v1H19z"/><path fill="#0056b3" d="M24 41h1v1H24z"/><path fill="#0e67bc" d="M28 41h1v1H28zM55 41h1v1H55z"/><path fill="#689aca" d="M30 41h1v1H30z"/><path fill="#f0f5f7" d="M33 41h1v1H33z"/><path fill="#5189c4" d="M34 41h1v1H34z"/><path fill="#1165b6" d="M38 41h1v1H38z"/><path fill="#6397ca" d="M40 41h1v1H40z"/><path fill="#0e60b4" d="M41 41h1v1H41z"/><path fill="#0052ae" d="M42 41h1v1H42z"/><path fill="#6093c6" d="M43 41h1v1H43z"/><path fill="#adc6df" d="M48 41h1v1H48z"/><path fill="#0659af" d="M49 41h1v1H49z"/><path fill="#004caf" d="M50 41h1v1H50z"/><path fill="#0360b9" d="M51 41h1v1H51z"/><path fill="#5a90c5" d="M58 41h1v1H58z"/><path fill="#d6e2ee" d="M65 41h1v1H65zM102 41h1v1H102z"/><path fill="#dbe1ed" d="M66 41h1v1H66z"/><path fill="#dbe4ee" d="M73 41h1v1H73z"/><path fill="#f9faf9" d="M81 41h1v1H81z"/><path fill="#e1e9f2" d="M84 41h3v1H84zM105 41h3v1H105zM128 41h1v1H128zM174 41h2v1H174z"/><path fill="#e0e9f1" d="M87 41h1v1H87zM109 41h1v1H109zM129 41h1v1H129zM173 41h1v1H173z"/><path fill="#dde5ef" d="M88 41h1v1H88z"/><path fill="#d1e0ec" d="M91 41h1v1H91z"/><path fill="#dbe3ee" d="M92 41h1v1H92z"/><path fill="#fefcfb" d="M93 41h1v1H93z"/><path fill="#dae0ec" d="M99 41h1v1H99z"/><path fill="#f9faf8" d="M100 41h1v1H100z"/><path fill="#dce5f0" d="M103 41h1v1H103zM112 41h1v1H112z"/><path fill="#dfe8f1" d="M108 41h1v1H108z"/><path fill="#d3e1ed" d="M115 41h1v1H115z"/><path fill="#d5dfec" d="M117 41h1v1H117z"/><path fill="#eaeef3" d="M120 41h1v1H120z"/><path fill="#dde6f0" d="M126 41h1v1H126z"/><path fill="#f3f5f8" d="M134 41h1v1H134z"/><path fill="#cfddeb" d="M135 41h1v1H135z"/><path fill="#dce8ef" d="M136 41h1v1H136z"/><path fill="#dee7f1" d="M145 41h1v1H145z"/><path fill="#f3f5f6" d="M147 41h1v1H147z"/><path fill="#dadfec" d="M155 41h1v1H155z"/><path fill="#f7f7f7" d="M156 41h1v1H156z"/><path fill="#eaeff5" d="M158 41h1v1H158z"/><path fill="#d1ddeb" d="M159 41h1v1H159z"/><path fill="#e3eef3" d="M160 41h1v1H160z"/><path fill="#d2dfed" d="M166 41h1v1H166z"/><path fill="#dfe9f1" d="M167 41h1v1H167z"/><path fill="#f1f4f6" d="M171 41h1v1H171z"/><path fill="#eef2f5" d="M177 41h1v1H177z"/><path fill="#fafbfa" d="M19 42h1v1H19z"/><path fill="#5d92c7" d="M20 42h1v1H20z"/><path fill="#0053ad" d="M21 42h1v1H21z"/><path fill="#0762bb" d="M23 42h1v1H23z"/><path fill="#186dbf" d="M25 42h1v1H25z"/><path fill="#0562ba" d="M26 42h1v1H26z"/><path fill="#0056af" d="M28 42h1v1H28z"/><path fill="#7ba5cf" d="M29 42h1v1H29z"/><path fill="#d0ddec" d="M35 42h1v1H35z"/><path fill="#b1c9e4" d="M36 42h1v1H36z"/><path fill="#bcd2e6" d="M37 42h1v1H37z"/><path fill="#f0f2f5" d="M38 42h1v1H38z"/><path fill="#e2e8f0" d="M41 42h1v1H41z"/><path fill="#e7eef3" d="M42 42h1v1H42z"/><path fill="#2671ba" d="M51 42h1v1H51z"/><path fill="#055cb3" d="M52 42h1v1H52z"/><path fill="#1063b5" d="M55 42h1v1H55z"/><path fill="#4382c2" d="M56 42h1v1H56z"/><path fill="#a6c2de" d="M57 42h1v1H57z"/><path fill="#5993ca" d="M112 42h1v1H112z"/><path fill="#0039aa" d="M113 42h1v1H113z"/><path fill="#4286c4" d="M114 42h1v1H114z"/><path fill="rgb(194 210 228)" fill-opacity="0.9490" d="M21 43h1v1H21z"/><path fill="rgb(99 150 200)" fill-opacity="0.9490" d="M22 43h1v1H22z"/><path fill="rgb(51 122 190)" fill-opacity="0.9490" d="M23 43h1v1H23z"/><path fill="rgb(28 109 187)" fill-opacity="0.9490" d="M24 43h1v1H24z"/><path fill="rgb(52 121 191)" fill-opacity="0.9490" d="M26 43h1v1H26z"/><path fill="rgb(104 154 204)" fill-opacity="0.9490" d="M27 43h1v1H27z"/><path fill="rgb(203 218 232)" fill-opacity="0.9490" d="M28 43h1v1H28z"/><path fill="rgb(249 249 248)" fill-opacity="0.9490" d="M51 43h1v1H51z"/><path fill="rgb(202 219 235)" fill-opacity="0.9490" d="M52 43h1v1H52z"/><path fill="rgb(181 204 229)" fill-opacity="0.9490" d="M53 43h1v1H53z"/><path fill="rgb(187 208 230)" fill-opacity="0.9490" d="M54 43h1v1H54z"/><path fill="rgb(222 229 240)" fill-opacity="0.9490" d="M55 43h1v1H55z"/><path fill="rgb(208 221 235)" fill-opacity="0.9490" d="M111 43h1v1H111z"/><path fill="rgb(1 89 176)" fill-opacity="0.9490" d="M112 43h1v1H112z"/><path fill="rgb(9 86 176)" fill-opacity="0.9490" d="M113 43h1v1H113z"/><path fill="rgb(192 212 229)" fill-opacity="0.9490" d="M114 43h1v1H114z"/></svg>
